<?xml version="1.0" encoding="utf-8"?>
<!-- Generator: Adobe Illustrator 26.1.0, SVG Export Plug-In . SVG Version: 6.00 Build 0)  -->
<svg version="1.1" id="Layer_1" xmlns="http://www.w3.org/2000/svg" xmlns:xlink="http://www.w3.org/1999/xlink" x="0px" y="0px"
	 viewBox="0 0 158 54" style="enable-background:new 0 0 158 54;" xml:space="preserve">
<style type="text/css">
	.st0{fill:#FFFFFF;}
</style>
<g>
	<path class="st0" d="M-45.91-353.14c-0.56-1.14-1.38-2.09-2.44-2.83c-1.07-0.74-2.39-1.3-3.92-1.66c-1.55-0.36-3.32-0.54-5.27-0.54
		H-72.2v3.01l3.69,0.74v21.67l-3.69,0.74v2.96h13.29v-2.94l-4.94-0.74v-7.06h6.21c1.94,0,3.71-0.19,5.27-0.58
		c1.55-0.38,2.88-0.96,3.96-1.72c1.07-0.75,1.9-1.71,2.47-2.85c0.58-1.15,0.87-2.51,0.87-4.05
		C-45.07-350.61-45.35-351.99-45.91-353.14 M-50.15-346.97c-0.26,0.64-0.67,1.21-1.24,1.69c-0.56,0.47-1.3,0.84-2.2,1.11
		c-0.88,0.26-1.98,0.39-3.27,0.39h-6.99v-10.43h6.99c1.25,0,2.34,0.12,3.22,0.37c0.9,0.25,1.64,0.6,2.21,1.06
		c0.58,0.46,1,1.02,1.27,1.66c0.26,0.63,0.39,1.34,0.39,2.1C-49.78-348.29-49.9-347.6-50.15-346.97"/>
	<path class="st0" d="M-14.03-332.87l-12.33-25.39h-4.24l-12.25,25.52l-3.28,0.72v2.96h11.35v-2.95l-3.59-0.62l2.09-4.59h15.24
		l2.19,4.59l-3.65,0.62v2.95h11.9v-2.96l-3.37-0.72L-14.03-332.87z M-34.58-340.87l5.85-13.28l5.88,13.28H-34.58z"/>
	<path class="st0" d="M14.98-341.66c-0.57-0.61-1.24-1.12-2-1.55c-0.78-0.43-1.62-0.81-2.49-1.12c-0.89-0.32-1.81-0.59-2.75-0.81
		c-0.95-0.22-1.9-0.43-2.83-0.63c-1.05-0.21-2.05-0.45-2.98-0.68c-0.94-0.24-1.79-0.54-2.52-0.89c-0.75-0.35-1.36-0.8-1.8-1.32
		c-0.46-0.55-0.69-1.22-0.69-2.02c0-0.7,0.23-1.33,0.67-1.87c0.42-0.52,1.01-0.97,1.73-1.33c0.7-0.35,1.53-0.62,2.44-0.8
		c0.91-0.18,1.88-0.27,2.9-0.27c1.46,0,2.73,0.15,3.76,0.45c1.02,0.3,1.78,0.6,2.25,0.89l0.29,0.18l-0.21,0.26
		c-0.15,0.19-0.28,0.42-0.39,0.65c-0.1,0.23-0.15,0.52-0.15,0.87c0,0.32,0.06,0.64,0.18,0.96c0.12,0.32,0.29,0.59,0.54,0.84
		c0.25,0.25,0.56,0.45,0.93,0.62c0.71,0.31,1.82,0.33,2.66-0.01c0.41-0.17,0.75-0.4,1.04-0.7c0.29-0.3,0.51-0.67,0.68-1.09
		c0.16-0.43,0.25-0.9,0.25-1.39c0-0.91-0.32-1.76-0.96-2.53c-0.66-0.79-1.55-1.49-2.64-2.07c-1.11-0.58-2.41-1.05-3.86-1.38
		c-2.86-0.65-6.07-0.69-9.06,0.04c-1.45,0.36-2.77,0.89-3.9,1.59c-1.13,0.69-2.05,1.56-2.74,2.6c-0.68,1.02-1.02,2.21-1.02,3.55
		c0,1.06,0.16,2,0.46,2.79c0.31,0.78,0.73,1.47,1.27,2.05c0.54,0.58,1.17,1.08,1.9,1.47c0.74,0.41,1.54,0.76,2.38,1.05
		c0.85,0.3,1.75,0.55,2.66,0.75c0.93,0.21,1.85,0.4,2.77,0.59c1.1,0.22,2.15,0.45,3.12,0.7c1.01,0.25,1.91,0.57,2.69,0.94
		c0.8,0.39,1.45,0.89,1.92,1.48c0.49,0.62,0.74,1.39,0.74,2.3c0,0.7-0.15,1.3-0.45,1.79c-0.29,0.49-0.69,0.89-1.18,1.22
		c-0.48,0.32-1.03,0.57-1.63,0.74c-0.59,0.17-1.2,0.3-1.81,0.39c-0.61,0.09-1.23,0.14-1.81,0.15c-1.36,0.04-2.41,0.05-3.49-0.12
		c-0.62-0.1-1.19-0.22-1.7-0.38c-0.52-0.16-0.98-0.34-1.38-0.54c-0.42-0.21-0.74-0.42-0.96-0.65l-0.15-0.15l0.09-0.19
		c0.08-0.17,0.14-0.33,0.18-0.5c0.04-0.17,0.06-0.42,0.06-0.75c0-0.28-0.06-0.59-0.18-0.9c-0.11-0.31-0.3-0.6-0.54-0.86
		c-0.24-0.26-0.55-0.48-0.92-0.64c-0.37-0.17-0.8-0.25-1.3-0.25c-0.41,0-0.81,0.08-1.19,0.22c-0.39,0.15-0.73,0.35-1.02,0.63
		c-0.29,0.27-0.53,0.62-0.71,1.03c-0.19,0.42-0.28,0.89-0.28,1.41c0,0.65,0.16,1.26,0.49,1.82c0.34,0.58,0.8,1.11,1.38,1.59
		c0.6,0.49,1.3,0.93,2.09,1.31c0.79,0.38,1.65,0.71,2.56,0.98c0.91,0.26,1.85,0.47,2.82,0.61c0.96,0.14,1.93,0.21,2.86,0.21
		c4.21,0,7.44-0.72,9.58-2.14c2.14-1.42,3.17-3.44,3.17-6.19c0-1.09-0.16-2.06-0.48-2.88C15.99-340.34,15.54-341.06,14.98-341.66"/>
	<path class="st0" d="M82.69-349.42c-0.74-1.87-1.8-3.53-3.15-4.92c-1.36-1.4-3.04-2.52-4.98-3.34c-1.94-0.82-4.15-1.23-6.56-1.23
		c-1.6,0-3.11,0.19-4.5,0.57c-1.39,0.38-2.69,0.91-3.85,1.58c-1.16,0.68-2.22,1.5-3.13,2.45c-0.91,0.96-1.7,2.02-2.34,3.16
		c-0.64,1.14-1.13,2.38-1.47,3.69c-0.34,1.31-0.51,2.68-0.51,4.08c0,2.12,0.38,4.12,1.13,5.94c0.75,1.83,1.83,3.43,3.2,4.78
		c1.37,1.35,3.04,2.42,4.98,3.19c1.93,0.77,4.12,1.15,6.5,1.15c2.36,0,4.55-0.39,6.49-1.17c1.94-0.77,3.62-1.85,4.99-3.2
		c1.37-1.34,2.44-2.96,3.2-4.79c0.75-1.83,1.13-3.84,1.13-5.96C83.8-345.54,83.43-347.55,82.69-349.42 M78.3-339.34
		c-0.44,1.34-1.12,2.54-2.02,3.56c-0.9,1.04-2.05,1.88-3.42,2.5c-1.37,0.62-3,0.94-4.85,0.94c-1.86,0-3.5-0.31-4.87-0.92
		c-1.38-0.62-2.53-1.45-3.43-2.48c-0.9-1.03-1.58-2.23-2.01-3.55c-0.43-1.32-0.65-2.72-0.65-4.14c0-1.38,0.22-2.77,0.65-4.11
		c0.43-1.36,1.11-2.59,2.01-3.66c0.9-1.06,2.05-1.94,3.42-2.6c1.37-0.66,3.02-1,4.88-1c1.88,0,3.53,0.33,4.9,0.99
		c1.37,0.66,2.52,1.53,3.42,2.59c0.9,1.07,1.57,2.29,1.99,3.64c0.42,1.35,0.64,2.73,0.64,4.11
		C78.96-342.05,78.73-340.66,78.3-339.34"/>
	<polygon class="st0" points="48.16,-329.06 47.78,-336.12 44.3,-336.12 43.8,-333.03 38.06,-332.01 38.06,-329.06 	"/>
	<polygon class="st0" points="29.82,-332.75 29.82,-341.89 41.44,-341.89 41.44,-345.86 29.82,-345.86 29.82,-354.21 43.38,-354.21 
		43.89,-350.93 47.36,-350.93 47.75,-358.17 21.46,-358.17 21.46,-355.17 25.16,-354.43 25.16,-332.76 21.46,-332.02 21.46,-329.06 
		34.75,-329.06 34.75,-332.01 	"/>
	<path class="st0" d="M-52.62-320.64c-0.4-0.19-1.5-0.67-2.66-0.67c-0.78,0-1.42,0.46-1.42,1.44c0,2.28,4.82,2.08,4.82,5.25
		c0,2.12-1.68,2.92-3.72,2.92c-1.14,0-2.28-0.31-2.6-0.39v-1.2c0.46,0.27,1.65,0.89,2.83,0.89c0.94,0,1.86-0.39,1.86-1.73
		c0-2.4-4.82-2.18-4.82-5.31c0-1.63,1.25-2.57,3.34-2.57c1.02,0,1.99,0.19,2.38,0.27V-320.64z"/>
	<path class="st0" d="M-46.3-319.94c0.09-0.25,0.25-0.77,0.25-0.87c0-0.6-0.55-0.61-1.15-0.7v-0.33h2.79l3.62,9.99h-1.54l-1.11-3.09
		h-3.78l-1.11,3.09h-0.92L-46.3-319.94z M-46.97-315.64h3.28l-1.69-4.33L-46.97-315.64z"/>
	<path class="st0" d="M-37.19-319.94c0-1.38-0.21-1.32-1.49-1.57v-0.33h3.13l4.67,8.07h0.03v-8.07h0.93v9.98h-1.42l-4.9-8.44h-0.03
		v8.44h-0.93V-319.94z"/>
	<path class="st0" d="M-18.53-319.82c0-1.47-0.04-1.47-1.41-1.69v-0.33h7.11l0.04,2.19h-0.41c0-1.19-0.64-1.5-1.6-1.5h-1.16
		c-0.74,0-0.94,0.06-0.94,0.77v2.95h1.8c1.04,0,1.13-0.65,1.21-1.14h0.42v3.12h-0.42c0-0.8-0.32-1.28-1.21-1.28h-1.8v4.87h-1.63
		V-319.82z"/>
	<path class="st0" d="M-8.73-319.82c0-1.47-0.03-1.47-1.41-1.69v-0.33h3.65c1.11,0,4.18,0,4.18,2.66c0,1.69-1.1,2.25-2.27,2.45
		l2.73,4.88h-1.71l-2.62-4.61H-7.1v4.61h-1.63V-319.82z M-7.1-317.17h0.85c0.96,0,2.32-0.27,2.32-1.93c0-1.6-0.92-2.05-2.17-2.05
		c-0.99,0-0.99,0.27-0.99,1.34V-317.17z"/>
	<path class="st0" d="M3.69-319.94c0.09-0.25,0.25-0.77,0.25-0.87c0-0.6-0.55-0.61-1.15-0.7v-0.33h2.79l3.62,9.99H7.66l-1.11-3.09
		H2.76l-1.11,3.09H0.73L3.69-319.94z M3.02-315.64H6.3l-1.69-4.33L3.02-315.64z"/>
	<path class="st0" d="M12.79-319.94c0-1.38-0.21-1.32-1.49-1.57v-0.33h3.13l4.67,8.07h0.03v-8.07h0.93v9.98h-1.42l-4.9-8.44h-0.03
		v8.44h-0.93V-319.94z"/>
	<path class="st0" d="M31.38-312.24c-0.37,0.15-1.57,0.55-3.04,0.55c-3.04,0-4.22-1.94-4.22-5.27c0-2.74,0.82-5.04,4.13-5.04
		c2.31,0,3.22,1.01,3.38,2.2h-1.78c-0.08-0.49-0.39-1.5-1.74-1.5c-2.03,0-2.36,2.45-2.36,3.98c0,1.66,0.18,4.94,3.04,4.94
		c1.29,0,2.2-0.52,2.58-0.8V-312.24z"/>
	<path class="st0" d="M35.47-319.88c0-1.25-0.04-1.26-1.49-1.45v-0.33L37.1-322v10.15h-1.63V-319.88z"/>
	<path class="st0" d="M46.82-320.64c-0.4-0.19-1.5-0.67-2.66-0.67c-0.78,0-1.42,0.46-1.42,1.44c0,2.28,4.82,2.08,4.82,5.25
		c0,2.12-1.68,2.92-3.72,2.92c-1.14,0-2.28-0.31-2.6-0.39v-1.2c0.46,0.27,1.65,0.89,2.84,0.89c0.93,0,1.85-0.39,1.85-1.73
		c0-2.4-4.82-2.18-4.82-5.31c0-1.63,1.25-2.57,3.34-2.57c1.02,0,1.99,0.19,2.37,0.27V-320.64z"/>
	<path class="st0" d="M57.98-312.24c-0.37,0.15-1.57,0.55-3.04,0.55c-3.04,0-4.21-1.94-4.21-5.27c0-2.74,0.82-5.04,4.12-5.04
		c2.31,0,3.22,1.01,3.38,2.2h-1.78c-0.07-0.49-0.39-1.5-1.74-1.5c-2.03,0-2.36,2.45-2.36,3.98c0,1.66,0.18,4.94,3.04,4.94
		c1.29,0,2.2-0.52,2.58-0.8V-312.24z"/>
	<path class="st0" d="M61.37-316.81c0-3.19,0.89-5.19,4.11-5.19c3.09,0,4.02,2,4.02,5.19c0,3.15-0.93,5.12-4.02,5.12
		C62.35-311.69,61.37-313.63,61.37-316.81 M65.48-312.39c2.3,0,2.39-2.52,2.39-4.42c0-1.94-0.13-4.49-2.39-4.49
		c-2.3,0-2.48,2.49-2.48,4.49C63-314.97,63.22-312.39,65.48-312.39"/>
</g>
<g id="jq4rtz_00000103227709658651875540000012841541707888292268_">
	<g>
		<path class="st0" d="M82.14,29.51c-1.4,0.98-2.37,0.75-2.94-0.84c-0.41-1.14-0.58-2.37-0.87-3.57c-0.07-0.31-0.16-0.62-0.24-0.92
			c-0.08-0.01-0.15-0.01-0.23-0.02c-0.39,1.03-0.74,2.08-1.17,3.1c-0.43,1.01-0.7,2.14-1.78,2.86c-1.42-0.93-1.37-2.51-1.89-3.97
			c-0.1,0.28-0.16,0.46-0.21,0.64c-0.31,1.1-0.75,2.12-1.7,2.83c-0.8,0.59-1.58,0.59-2.39,0.01c-0.96-0.68-1.43-1.64-1.52-2.79
			c-0.02-0.25-0.03-0.5-0.05-0.96c-0.87,0.82-1.61,1.52-2.15,2.03c-0.33,4.06-0.55,7.87-0.98,11.65c-0.29,2.53-0.88,5.03-1.39,7.54
			c-0.13,0.63-0.43,1.24-0.75,1.8c-0.42,0.74-1.06,0.8-1.69,0.22c-0.26-0.25-0.52-0.54-0.66-0.86c-2.28-5.09-2.77-10.29-0.38-15.45
			c0.78-1.67,2.15-3.06,3.26-4.57c0.2-0.27,0.45-0.51,0.69-0.77c-0.3-3.59-0.66-7.16-1.79-10.91c0.1-0.65,0.95-0.8,1.78-1.32
			c0.55,3.63,1.07,7.11,1.6,10.64c1.02-0.69,2-1.32,2.95-2c0.17-0.12,0.23-0.4,0.37-0.58c0.44-0.57,0.84-1.2,1.37-1.69
			c0.66-0.6,1.47-0.94,2.37-0.44c0.9,0.5,1.27,1.36,1.15,2.22c0.54,0.68,1.07,1.19,1.39,1.81c0.31,0.6,0.39,1.32,0.66,1.99
			c0.88-1.43,1.89-2.78,1.7-4.58c-0.06-0.56,0.16-0.89,0.81-1.25c1.18,0.65,1.81,1.72,2.09,3.02c0.19,0.87,0.3,1.75,0.47,2.62
			c0.07,0.37,0.23,0.73,0.35,1.11c0.67-0.17,0.76-0.55,0.72-1.08c-0.14-1.73,0.29-3.33,1.38-4.69c1.19-1.48,2.89-1.68,4.48-0.52
			c0.01-0.24,0.04-0.42,0.03-0.61c-0.06-1.7-0.15-3.39-0.18-5.09c-0.01-0.45,0.18-0.9,0.27-1.34c0.99,0.05,1.43,0.46,1.44,1.23
			c0.04,1.77,0.09,3.55,0.05,5.32c-0.05,2.15,0.41,4.19,1.04,6.22c0.07,0.23,0.26,0.42,0.54,0.86c1.25-2.05,1.13-4.15,1.28-6.26
			c0.17-0.15,0.38-0.33,0.6-0.52c0.77,0.42,1.2,0.97,1.33,1.83c0.21,1.42,0.5,2.83,0.77,4.24c0.03,0.14,0.09,0.27,0.19,0.57
			c0.74-1.89,0.57-3.84,1.37-5.47c0.99-0.29,1.51,0.19,1.83,0.85c0.46,0.94,0.8,1.93,1.19,2.89c0.19,0.45,0.39,0.89,0.69,1.56
			c0.25-0.58,0.46-0.93,0.56-1.31c0.55-2.04,1.06-4.09,1.6-6.14c0.11-0.43,0.29-0.85,0.5-1.42c0.83,0.72,1.45,1.28,1.73,2.24
			c0.87,2.98,1.81,5.93,2.77,8.88c0.19,0.59,0.55,1.13,0.83,1.68c1.28,2.54,3.4,3.65,6.18,3.63c0.81-0.01,1.61-0.12,2.42-0.18
			c0.3-0.02,0.6-0.03,0.9-0.05c0.04,0.09,0.08,0.19,0.12,0.28c-0.24,0.14-0.46,0.32-0.72,0.4c-4.13,1.28-7.79-0.06-10.36-3.78
			c-1.6-2.31-2.53-4.91-3.25-7.59c-0.03-0.12-0.07-0.25-0.16-0.56c-0.14,0.32-0.21,0.48-0.28,0.64c-0.6,1.47-1.12,2.98-1.82,4.41
			c-0.6,1.23-1.38,1.21-1.99-0.02c-0.46-0.93-0.75-1.94-1.11-2.92c-0.16-0.43-0.3-0.87-0.61-1.29c-0.17,0.82-0.3,1.66-0.54,2.46
			c-0.22,0.72-0.48,1.45-0.86,2.08c-0.5,0.83-1.23,0.82-1.71-0.02c-0.46-0.81-0.77-1.7-1.19-2.67c-0.07,0.27-0.1,0.47-0.17,0.67
			c-0.18,0.52-0.31,1.06-0.57,1.54c-0.72,1.33-2.02,1.4-2.84,0.12c-0.39-0.61-0.61-1.32-0.89-1.99c-0.1-0.23-0.15-0.48-0.24-0.78
			c-0.51,0.74-0.93,1.47-1.48,2.08c-0.48,0.53-1.05,1.03-1.68,1.37C83.7,30.32,82.86,30.04,82.14,29.51z M60.79,47.46
			c1.78-3.68,2.81-14.09,2.29-17.19C59.26,34.18,58.04,43.08,60.79,47.46z M86.68,23.91c-0.26-0.61-0.47-1.28-1.24-1.39
			c-0.82-0.11-1.4,0.35-1.84,0.96c-0.89,1.24-1.08,2.63-0.81,4.1c0.06,0.3,0.29,0.57,0.42,0.82C84.51,28.23,85.97,26.31,86.68,23.91
			z M71.1,22.33c-1.65,0.99-2.2,2.4-2.24,4.03c-0.02,0.8-0.11,1.7,0.87,2.23c1.98-0.92,2.18-2.72,2.3-4.62
			C71.75,23.49,71.45,22.96,71.1,22.33z"/>
		<path class="st0" d="M51.85,45.28c-0.67-2.86-1.01-5.79-1.25-8.72c-0.24-2.93-0.39-5.87-0.59-8.85c-1.72,1.3-3.27,3.18-5.9,1.79
			c-0.88,0.44-1.79,0.4-2.51-0.48c-0.38-0.46-0.79-0.97-0.48-1.66c0.89-0.15,1.32,1.31,2.15,0.66c0.15-1.07,0.16-2.05,0.45-2.95
			c0.49-1.54,1.51-2.68,3.11-3.16c1.32-0.4,2.16,0.24,1.87,1.57c-0.22,0.99-0.72,1.94-1.24,2.83c-0.44,0.75-1.1,1.37-1.76,2.17
			c1.96-0.35,3.13-1.63,4.31-2.82c0.1-2.04,0.15-4.02,0.29-6c0.18-2.51,0.49-5,1.49-7.33c0.37-0.87,0.91-1.72,1.58-2.39
			c1.04-1.04,2.14-0.81,2.77,0.52c1.16,2.45,1.08,4.98,0.18,7.47c-1.01,2.8-2.68,5.24-4.47,7.6c-0.27,0.36-0.48,0.88-0.49,1.33
			c-0.11,5.75,0.29,11.48,0.87,17.2c0.04,0.39,0.01,0.79,0.01,1.19C52.1,45.26,51.97,45.27,51.85,45.28z M54.71,10.84
			c-2.66,3.82-2.86,8.24-3.18,12.63c0.2-0.13,0.34-0.28,0.44-0.45c0.76-1.34,1.65-2.62,2.22-4.04c0.61-1.5,1.04-3.11,1.34-4.71
			C55.75,13.11,55.53,11.91,54.71,10.84z M47.52,22.91c-2.07,0.58-3.48,2.84-2.86,4.32C45.94,26.05,47.27,24.95,47.52,22.91z"/>
		<path class="st0" d="M98.78,11.75c0.76,0.17,1.19,0.71,1.39,1.45c0.17,0.66-0.4,0.85-0.78,1.2c-1.73,1.62-3.43,3.27-5.13,4.91
			c-0.31,0.3-0.6,0.63-0.89,0.94c-0.08-0.02-0.17-0.04-0.25-0.06c0-0.39-0.12-0.84,0.02-1.17c0.31-0.71,0.7-1.4,1.17-2.02
			c0.8-1.06,1.68-2.05,2.54-3.07C97.46,13.24,98.08,12.55,98.78,11.75z"/>
		<path class="st0" d="M71.21,7.19c0.39-0.54,0.71-0.98,1.04-1.41c0.31-0.42,0.61-0.84,0.9-1.23c0.49,0,0.93,0,1.39,0
			c0,1.58,0,3.11,0,4.67c-0.29,0-0.53,0-0.86,0c0-1.23,0-2.42,0-3.61c-0.06-0.03-0.12-0.06-0.19-0.08c-0.74,1-1.49,2-2.27,3.06
			c-0.79-1.08-1.53-2.08-2.4-3.28c0,1.43,0,2.63,0,3.89c-0.36,0-0.62,0-0.93,0c0-1.54,0-3.07,0-4.65c0.46,0,0.89,0,1.41,0
			C69.87,5.37,70.5,6.22,71.21,7.19z"/>
		<path class="st0" d="M60.32,14.39c-1.24-0.07-1.87-0.93-1.4-2.05c0.52-1.23,1.43-2.1,2.72-2.5c0.78-0.24,1.15-0.05,1.46,0.69
			c0.01,0.02,0,0.06,0.02,0.07c0.39,0.5,0.89,1.06,0.46,1.66c-0.45,0.63-1.08,1.16-1.72,1.6C61.42,14.16,60.83,14.23,60.32,14.39z
			 M60.17,12.98c1.27-0.15,1.91-0.58,2.05-1.44C61.42,11.89,60.6,12.01,60.17,12.98z"/>
		<path class="st0" d="M77.11,8.3c-0.2,0.34-0.37,0.63-0.55,0.94c-0.29,0-0.57,0-0.99,0c0.87-1.6,1.7-3.14,2.55-4.7
			c0.4,0,0.78,0,1.22,0c0.84,1.54,1.68,3.08,2.56,4.69c-0.39,0-0.67,0-0.99,0c-0.18-0.3-0.37-0.61-0.57-0.94
			C79.27,8.3,78.21,8.3,77.11,8.3z M78.74,5.28c-0.41,0.75-0.75,1.37-1.14,2.08c0.81,0,1.48,0,2.26,0
			C79.48,6.67,79.16,6.06,78.74,5.28z"/>
		<path class="st0" d="M83.79,8.48c1.31,0,2.47,0,3.68,0c0,0.28,0,0.5,0,0.75c-1.52,0-2.99,0-4.53,0c0-1.55,0-3.09,0-4.68
			c0.27,0,0.52,0,0.85,0C83.79,5.83,83.79,7.1,83.79,8.48z"/>
		<path class="st0" d="M93.15,8.44c0,0.34,0,0.54,0,0.78c-1.51,0-2.99,0-4.53,0c0-1.53,0-3.05,0-4.66c0.24-0.02,0.48-0.04,0.82-0.07
			c0,1.32,0,2.58,0,3.94C90.71,8.44,91.89,8.44,93.15,8.44z"/>
	</g>
</g>
</svg>
