<?xml version="1.0" encoding="utf-8"?>
<!-- Generator: Adobe Illustrator 26.1.0, SVG Export Plug-In . SVG Version: 6.00 Build 0)  -->
<svg version="1.1" id="Layer_1" xmlns="http://www.w3.org/2000/svg" xmlns:xlink="http://www.w3.org/1999/xlink" x="0px" y="0px"
	 viewBox="0 0 158 54" style="enable-background:new 0 0 158 54;" xml:space="preserve">
<style type="text/css">
	.st0{fill:#FFFFFF;}
</style>
<g>
	<path class="st0" d="M132.09-353.14c-0.56-1.14-1.38-2.09-2.44-2.83c-1.07-0.74-2.39-1.3-3.92-1.66c-1.55-0.36-3.32-0.54-5.27-0.54
		H105.8v3.01l3.69,0.74v21.67l-3.69,0.74v2.96h13.29v-2.94l-4.94-0.74v-7.06h6.21c1.94,0,3.71-0.19,5.27-0.58
		c1.55-0.38,2.88-0.96,3.96-1.72c1.07-0.75,1.9-1.71,2.47-2.85c0.58-1.15,0.87-2.51,0.87-4.05
		C132.93-350.61,132.65-351.99,132.09-353.14 M127.85-346.97c-0.26,0.64-0.67,1.21-1.24,1.69c-0.56,0.47-1.3,0.84-2.2,1.11
		c-0.88,0.26-1.98,0.39-3.27,0.39h-6.99v-10.43h6.99c1.25,0,2.34,0.12,3.22,0.37c0.9,0.25,1.64,0.6,2.21,1.06
		c0.58,0.46,1,1.02,1.27,1.66c0.26,0.63,0.39,1.34,0.39,2.1C128.22-348.29,128.1-347.6,127.85-346.97"/>
	<path class="st0" d="M163.97-332.87l-12.33-25.39h-4.24l-12.25,25.52l-3.28,0.72v2.96h11.35v-2.95l-3.59-0.62l2.09-4.59h15.24
		l2.19,4.59l-3.65,0.62v2.95h11.9v-2.96l-3.37-0.72L163.97-332.87z M143.42-340.87l5.85-13.28l5.88,13.28H143.42z"/>
	<path class="st0" d="M192.98-341.66c-0.57-0.61-1.24-1.12-2-1.55c-0.78-0.43-1.62-0.81-2.49-1.12c-0.89-0.32-1.81-0.59-2.75-0.81
		c-0.95-0.22-1.9-0.43-2.83-0.63c-1.05-0.21-2.05-0.45-2.98-0.68c-0.94-0.24-1.79-0.54-2.52-0.89c-0.75-0.35-1.36-0.8-1.8-1.32
		c-0.46-0.55-0.69-1.22-0.69-2.02c0-0.7,0.23-1.33,0.67-1.87c0.42-0.52,1.01-0.97,1.73-1.33c0.7-0.35,1.53-0.62,2.44-0.8
		c0.91-0.18,1.88-0.27,2.9-0.27c1.46,0,2.73,0.15,3.76,0.45c1.02,0.3,1.78,0.6,2.25,0.89l0.29,0.18l-0.21,0.26
		c-0.15,0.19-0.28,0.42-0.39,0.65c-0.1,0.23-0.15,0.52-0.15,0.87c0,0.32,0.06,0.64,0.18,0.96c0.12,0.32,0.29,0.59,0.54,0.84
		c0.25,0.25,0.56,0.45,0.93,0.62c0.71,0.31,1.82,0.33,2.66-0.01c0.41-0.17,0.75-0.4,1.04-0.7c0.29-0.3,0.51-0.67,0.68-1.09
		c0.16-0.43,0.25-0.9,0.25-1.39c0-0.91-0.32-1.76-0.96-2.53c-0.66-0.79-1.55-1.49-2.64-2.07c-1.11-0.58-2.41-1.05-3.86-1.38
		c-2.86-0.65-6.07-0.69-9.06,0.04c-1.45,0.36-2.77,0.89-3.9,1.59c-1.13,0.69-2.05,1.56-2.74,2.6c-0.68,1.02-1.02,2.21-1.02,3.55
		c0,1.06,0.16,2,0.46,2.79c0.31,0.78,0.73,1.47,1.27,2.05c0.54,0.58,1.17,1.08,1.9,1.47c0.74,0.41,1.54,0.76,2.38,1.05
		c0.85,0.3,1.75,0.55,2.66,0.75c0.93,0.21,1.85,0.4,2.77,0.59c1.1,0.22,2.15,0.45,3.12,0.7c1.01,0.25,1.91,0.57,2.69,0.94
		c0.8,0.39,1.45,0.89,1.92,1.48c0.49,0.62,0.74,1.39,0.74,2.3c0,0.7-0.15,1.3-0.45,1.79c-0.29,0.49-0.69,0.89-1.18,1.22
		c-0.48,0.32-1.03,0.57-1.63,0.74c-0.59,0.17-1.2,0.3-1.81,0.39c-0.61,0.09-1.23,0.14-1.81,0.15c-1.36,0.04-2.41,0.05-3.49-0.12
		c-0.62-0.1-1.19-0.22-1.7-0.38c-0.52-0.16-0.98-0.34-1.38-0.54c-0.42-0.21-0.74-0.42-0.96-0.65l-0.15-0.15l0.09-0.19
		c0.08-0.17,0.14-0.33,0.18-0.5c0.04-0.17,0.06-0.42,0.06-0.75c0-0.28-0.06-0.59-0.18-0.9c-0.11-0.31-0.3-0.6-0.54-0.86
		c-0.24-0.26-0.55-0.48-0.92-0.64c-0.37-0.17-0.8-0.25-1.3-0.25c-0.41,0-0.81,0.08-1.19,0.22c-0.39,0.15-0.73,0.35-1.02,0.63
		c-0.29,0.27-0.53,0.62-0.71,1.03c-0.19,0.42-0.28,0.89-0.28,1.41c0,0.65,0.16,1.26,0.49,1.82c0.34,0.58,0.8,1.11,1.38,1.59
		c0.6,0.49,1.3,0.93,2.09,1.31c0.79,0.38,1.65,0.71,2.56,0.98c0.91,0.26,1.85,0.47,2.82,0.61c0.96,0.14,1.93,0.21,2.86,0.21
		c4.21,0,7.44-0.72,9.58-2.14c2.14-1.42,3.17-3.44,3.17-6.19c0-1.09-0.16-2.06-0.48-2.88C193.99-340.34,193.54-341.06,192.98-341.66
		"/>
	<path class="st0" d="M260.69-349.42c-0.74-1.87-1.8-3.53-3.15-4.92c-1.36-1.4-3.04-2.52-4.98-3.34c-1.94-0.82-4.15-1.23-6.56-1.23
		c-1.6,0-3.11,0.19-4.5,0.57c-1.39,0.38-2.69,0.91-3.85,1.58c-1.16,0.68-2.22,1.5-3.13,2.45c-0.91,0.96-1.7,2.02-2.34,3.16
		c-0.64,1.14-1.13,2.38-1.47,3.69c-0.34,1.31-0.51,2.68-0.51,4.08c0,2.12,0.38,4.12,1.13,5.94c0.75,1.83,1.83,3.43,3.2,4.78
		c1.37,1.35,3.04,2.42,4.98,3.19c1.93,0.77,4.12,1.15,6.5,1.15c2.36,0,4.55-0.39,6.49-1.17c1.94-0.77,3.62-1.85,4.99-3.2
		c1.37-1.34,2.44-2.96,3.2-4.79c0.75-1.83,1.13-3.84,1.13-5.96C261.8-345.54,261.43-347.55,260.69-349.42 M256.3-339.34
		c-0.44,1.34-1.12,2.54-2.02,3.56c-0.9,1.04-2.05,1.88-3.42,2.5c-1.37,0.62-3,0.94-4.85,0.94c-1.86,0-3.5-0.31-4.87-0.92
		c-1.38-0.62-2.53-1.45-3.43-2.48c-0.9-1.03-1.58-2.23-2.01-3.55c-0.43-1.32-0.65-2.72-0.65-4.14c0-1.38,0.22-2.77,0.65-4.11
		c0.43-1.36,1.11-2.59,2.01-3.66c0.9-1.06,2.05-1.94,3.42-2.6c1.37-0.66,3.02-1,4.88-1c1.88,0,3.53,0.33,4.9,0.99
		c1.37,0.66,2.52,1.53,3.42,2.59c0.9,1.07,1.57,2.29,1.99,3.64c0.42,1.35,0.64,2.73,0.64,4.11
		C256.96-342.05,256.73-340.66,256.3-339.34"/>
	<polygon class="st0" points="226.16,-329.06 225.78,-336.12 222.3,-336.12 221.8,-333.03 216.06,-332.01 216.06,-329.06 	"/>
	<polygon class="st0" points="207.82,-332.75 207.82,-341.89 219.44,-341.89 219.44,-345.86 207.82,-345.86 207.82,-354.21 
		221.38,-354.21 221.89,-350.93 225.36,-350.93 225.75,-358.17 199.46,-358.17 199.46,-355.17 203.16,-354.43 203.16,-332.76 
		199.46,-332.02 199.46,-329.06 212.75,-329.06 212.75,-332.01 	"/>
	<path class="st0" d="M125.38-320.64c-0.4-0.19-1.5-0.67-2.66-0.67c-0.78,0-1.42,0.46-1.42,1.44c0,2.28,4.82,2.08,4.82,5.25
		c0,2.12-1.68,2.92-3.72,2.92c-1.14,0-2.28-0.31-2.6-0.39v-1.2c0.46,0.27,1.65,0.89,2.83,0.89c0.94,0,1.86-0.39,1.86-1.73
		c0-2.4-4.82-2.18-4.82-5.31c0-1.63,1.25-2.57,3.34-2.57c1.02,0,1.99,0.19,2.38,0.27V-320.64z"/>
	<path class="st0" d="M131.7-319.94c0.09-0.25,0.25-0.77,0.25-0.87c0-0.6-0.55-0.61-1.15-0.7v-0.33h2.79l3.62,9.99h-1.54l-1.11-3.09
		h-3.78l-1.11,3.09h-0.92L131.7-319.94z M131.03-315.64h3.28l-1.69-4.33L131.03-315.64z"/>
	<path class="st0" d="M140.81-319.94c0-1.38-0.21-1.32-1.49-1.57v-0.33h3.13l4.67,8.07h0.03v-8.07h0.93v9.98h-1.42l-4.9-8.44h-0.03
		v8.44h-0.93V-319.94z"/>
	<path class="st0" d="M159.47-319.82c0-1.47-0.04-1.47-1.41-1.69v-0.33h7.11l0.04,2.19h-0.41c0-1.19-0.64-1.5-1.6-1.5h-1.16
		c-0.74,0-0.94,0.06-0.94,0.77v2.95h1.8c1.04,0,1.13-0.65,1.21-1.14h0.42v3.12h-0.42c0-0.8-0.32-1.28-1.21-1.28h-1.8v4.87h-1.63
		V-319.82z"/>
	<path class="st0" d="M169.27-319.82c0-1.47-0.03-1.47-1.41-1.69v-0.33h3.65c1.11,0,4.18,0,4.18,2.66c0,1.69-1.1,2.25-2.27,2.45
		l2.73,4.88h-1.71l-2.62-4.61h-0.92v4.61h-1.63V-319.82z M170.9-317.17h0.85c0.96,0,2.32-0.27,2.32-1.93c0-1.6-0.92-2.05-2.17-2.05
		c-0.99,0-0.99,0.27-0.99,1.34V-317.17z"/>
	<path class="st0" d="M181.69-319.94c0.09-0.25,0.25-0.77,0.25-0.87c0-0.6-0.55-0.61-1.15-0.7v-0.33h2.79l3.62,9.99h-1.54
		l-1.11-3.09h-3.78l-1.11,3.09h-0.92L181.69-319.94z M181.02-315.64h3.28l-1.69-4.33L181.02-315.64z"/>
	<path class="st0" d="M190.79-319.94c0-1.38-0.21-1.32-1.49-1.57v-0.33h3.13l4.67,8.07h0.03v-8.07h0.93v9.98h-1.42l-4.9-8.44h-0.03
		v8.44h-0.93V-319.94z"/>
	<path class="st0" d="M209.38-312.24c-0.37,0.15-1.57,0.55-3.04,0.55c-3.04,0-4.22-1.94-4.22-5.27c0-2.74,0.82-5.04,4.13-5.04
		c2.31,0,3.22,1.01,3.38,2.2h-1.78c-0.08-0.49-0.39-1.5-1.74-1.5c-2.03,0-2.36,2.45-2.36,3.98c0,1.66,0.18,4.94,3.04,4.94
		c1.29,0,2.2-0.52,2.58-0.8V-312.24z"/>
	<path class="st0" d="M213.47-319.88c0-1.25-0.04-1.26-1.49-1.45v-0.33l3.12-0.34v10.15h-1.63V-319.88z"/>
	<path class="st0" d="M224.82-320.64c-0.4-0.19-1.5-0.67-2.66-0.67c-0.78,0-1.42,0.46-1.42,1.44c0,2.28,4.82,2.08,4.82,5.25
		c0,2.12-1.68,2.92-3.72,2.92c-1.14,0-2.28-0.31-2.6-0.39v-1.2c0.46,0.27,1.65,0.89,2.84,0.89c0.93,0,1.85-0.39,1.85-1.73
		c0-2.4-4.82-2.18-4.82-5.31c0-1.63,1.25-2.57,3.34-2.57c1.02,0,1.99,0.19,2.37,0.27V-320.64z"/>
	<path class="st0" d="M235.98-312.24c-0.37,0.15-1.57,0.55-3.04,0.55c-3.04,0-4.21-1.94-4.21-5.27c0-2.74,0.82-5.04,4.12-5.04
		c2.31,0,3.22,1.01,3.38,2.2h-1.78c-0.07-0.49-0.39-1.5-1.74-1.5c-2.03,0-2.36,2.45-2.36,3.98c0,1.66,0.18,4.94,3.04,4.94
		c1.29,0,2.2-0.52,2.58-0.8V-312.24z"/>
	<path class="st0" d="M239.37-316.81c0-3.19,0.89-5.19,4.11-5.19c3.09,0,4.02,2,4.02,5.19c0,3.15-0.93,5.12-4.02,5.12
		C240.35-311.69,239.37-313.63,239.37-316.81 M243.48-312.39c2.3,0,2.39-2.52,2.39-4.42c0-1.94-0.13-4.49-2.39-4.49
		c-2.3,0-2.48,2.49-2.48,4.49C241-314.97,241.22-312.39,243.48-312.39"/>
</g>
<g>
	<polygon class="st0" points="78.91,41.63 78.5,43 79.34,43 78.92,41.63 	"/>
	<path class="st0" d="M68.3,28.99c0.25,0.11,0.71,0.18,1.39,0.22c0.68,0.04,1.48,0.03,2.41-0.03c1.87-0.14,3.52-0.34,4.96-0.57
		c1.44-0.24,2.84-0.63,4.2-1.19c0.99-0.42,1.65-0.75,1.99-1.02c0.34-0.26,0.48-0.47,0.43-0.64c-0.05-0.16-0.21-0.31-0.49-0.43
		c-0.28-0.12-0.53-0.26-0.75-0.43c-0.21-0.14-0.45-0.24-0.7-0.31c-0.26-0.07-0.47-0.13-0.64-0.18c-0.25-0.05-0.48-0.08-0.7-0.08
		c-0.08,0.03-0.18,0.06-0.3,0.08c-0.12,0.05-0.27,0.1-0.43,0.15c-0.17,0.04-0.37,0.1-0.63,0.19c-0.25,0.08-0.67,0.24-1.25,0.48
		c-0.58,0.23-1.27,0.5-2.05,0.79c-0.79,0.29-1.65,0.6-2.6,0.94c-0.95,0.33-1.92,0.64-2.91,0.91c-0.99,0.28-1.62,0.51-1.89,0.69
		C68.06,28.74,68.05,28.88,68.3,28.99z"/>
	<polygon class="st0" points="91.41,41.63 90.99,43 91.83,43 91.41,41.63 	"/>
	<path class="st0" d="M74.15,46.89c-0.04-0.1-0.09-0.17-0.16-0.24c-0.07-0.06-0.16-0.09-0.27-0.09c-0.11,0-0.2,0.03-0.27,0.09
		c-0.07,0.06-0.12,0.14-0.16,0.24c-0.04,0.1-0.06,0.2-0.07,0.31c-0.01,0.12-0.02,0.23-0.02,0.33c0,0.11,0.01,0.22,0.02,0.33
		c0.01,0.12,0.04,0.22,0.07,0.32c0.04,0.1,0.09,0.18,0.16,0.24c0.07,0.06,0.16,0.1,0.27,0.1c0.11,0,0.2-0.03,0.27-0.1
		c0.07-0.06,0.12-0.15,0.16-0.24c0.04-0.1,0.06-0.2,0.07-0.32c0.01-0.12,0.02-0.23,0.02-0.33c0-0.11-0.01-0.22-0.02-0.33
		C74.21,47.09,74.18,46.98,74.15,46.89z"/>
	<path class="st0" d="M77.82,46.65c-0.05-0.03-0.11-0.04-0.17-0.05c-0.06,0-0.11-0.01-0.16-0.01h-0.21v0.85h0.27
		c0.16,0,0.27-0.04,0.34-0.11c0.07-0.07,0.11-0.18,0.11-0.31c0-0.11-0.02-0.19-0.06-0.25C77.91,46.72,77.87,46.68,77.82,46.65z"/>
	<path class="st0" d="M93.38,1.89L64.62,14.68C62.21,15.7,61.3,16.62,61.3,18v31.28c0,2.4,0.92,3.32,3.32,3.32h28.75
		c2.4,0,3.32-0.92,3.32-3.32V5.21C96.7,2.81,96.84,0.31,93.38,1.89z M92.75,37.87v0.33H65.24v-0.33H92.75z M86.22,29.82
		c0.13-0.01,0.2,0.04,0.22,0.13c0.02,0.08,0.02,0.18,0,0.3c-0.02,0.11-0.01,0.06-0.06,0.18c-0.05,0.11-0.07,0.19-0.08,0.23
		c0,0.04-0.05,0.11-0.15,0.19c-0.09,0.09-0.19,0.16-0.29,0.22c-0.11,0.06-0.19,0.09-0.25,0.09c-0.07-0.01-0.12-0.18-0.14-0.33
		C85.42,30.49,85.48,29.9,86.22,29.82z M65.33,28.88c0.16-0.27,0.51-0.54,1.05-0.79c0.54-0.25,1.18-0.48,1.92-0.71
		c0.75-0.22,1.56-0.44,2.44-0.67c0.88-0.22,1.72-0.44,2.54-0.67c0.81-0.22,1.56-0.43,2.24-0.62c0.68-0.19,1.28-0.38,1.78-0.54
		c0.6-0.19,1.15-0.37,1.66-0.54c-0.55-0.08-0.98-0.13-1.29-0.14c-0.31-0.01-0.7,0.01-1.17,0.07c-0.47,0.06-1.11,0.13-1.9,0.23
		c-0.8,0.1-1.93,0.19-3.42,0.28c-1.48,0.09-2.53,0.04-3.14-0.15c-0.61-0.19-0.98-0.44-1.1-0.76c-0.12-0.31-0.05-0.66,0.19-1.05
		c0.24-0.38,0.48-0.73,0.72-1.03c0.45-0.58,1.68-1.49,3.71-2.73c2.03-1.24,4.72-2.56,8.08-3.98c1.65-0.72,3.19-1.35,4.61-1.91
		c1.43-0.55,2.7-1.02,3.8-1.39c1.1-0.38,2.02-0.66,2.74-0.85c0.73-0.2,1.22-0.31,1.48-0.34c0.24,0,0.38,0.08,0.43,0.25
		c0.05,0.17,0.05,0.36-0.01,0.58c-0.05,0.22-0.12,0.44-0.21,0.66c-0.09,0.22-0.14,0.37-0.15,0.45c-0.01,0.08-0.11,0.21-0.29,0.37
		c-0.18,0.17-0.37,0.31-0.57,0.43c-0.2,0.12-0.37,0.18-0.49,0.16c-0.12-0.01-0.13-0.16-0.03-0.43c0.13-0.27,0.21-0.49,0.23-0.64
		c0.02-0.15-0.13-0.21-0.46-0.16c-0.32,0.04-0.91,0.19-1.74,0.44c-0.83,0.25-2.03,0.64-3.58,1.16c-1.53,0.5-3.06,1.07-4.58,1.7
		c-1.52,0.64-2.94,1.27-4.28,1.91c-1.33,0.64-2.53,1.24-3.61,1.82c-1.07,0.58-1.93,1.05-2.55,1.41c-1.3,0.72-1.74,1.25-1.31,1.59
		c0.43,0.34,1.63,0.59,3.58,0.75c0.98,0.08,2.04,0.05,3.18-0.07c1.14-0.13,2.27-0.23,3.39-0.32c1.12-0.09,2.16-0.07,3.1,0.05
		c0.94,0.12,1.72,0.47,2.31,1.04c0.6,0.57,0.83,1.12,0.69,1.64c-0.14,0.52-0.53,1.02-1.16,1.5c-0.64,0.48-1.48,0.94-2.51,1.39
		c-1.04,0.45-2.16,0.87-3.36,1.29c-0.8,0.28-1.71,0.5-2.74,0.67c-1.02,0.17-2.05,0.29-3.08,0.36c-1.03,0.07-2.02,0.09-2.98,0.05
		c-0.96-0.04-1.78-0.13-2.47-0.28c-0.69-0.15-1.2-0.35-1.54-0.59C65.17,29.54,65.11,29.24,65.33,28.88z M66.46,48.39
		c-0.04,0.08-0.1,0.15-0.17,0.2c-0.07,0.05-0.16,0.09-0.25,0.11c-0.1,0.02-0.19,0.03-0.3,0.03c-0.06,0-0.12,0-0.17-0.01
		c-0.06-0.01-0.11-0.01-0.15-0.02c-0.05-0.01-0.09-0.02-0.12-0.02c-0.03-0.01-0.06-0.01-0.07-0.02V48.4
		c0.01,0.01,0.04,0.01,0.07,0.03c0.03,0.01,0.07,0.03,0.12,0.04c0.05,0.01,0.1,0.03,0.16,0.04c0.06,0.01,0.13,0.02,0.2,0.02
		c0.07,0,0.13-0.01,0.19-0.03c0.06-0.02,0.11-0.04,0.15-0.08c0.04-0.03,0.08-0.07,0.1-0.12c0.02-0.05,0.04-0.11,0.04-0.17
		c0-0.07-0.01-0.12-0.03-0.17c-0.02-0.05-0.05-0.09-0.08-0.12c-0.03-0.04-0.07-0.07-0.12-0.09c-0.05-0.03-0.09-0.06-0.14-0.08
		l-0.2-0.11c-0.05-0.03-0.11-0.06-0.16-0.09c-0.06-0.03-0.11-0.07-0.16-0.12c-0.05-0.05-0.08-0.1-0.12-0.16
		c-0.03-0.06-0.05-0.14-0.05-0.23c0-0.1,0.02-0.19,0.06-0.26c0.04-0.07,0.09-0.14,0.15-0.18c0.06-0.05,0.14-0.09,0.23-0.11
		c0.09-0.03,0.18-0.04,0.29-0.04c0.11,0,0.2,0.01,0.29,0.02c0.08,0.02,0.14,0.03,0.18,0.04v0.26c-0.01-0.01-0.03-0.02-0.06-0.03
		c-0.03-0.01-0.07-0.02-0.11-0.03c-0.04-0.01-0.09-0.02-0.14-0.03c-0.05-0.01-0.11-0.01-0.17-0.01c-0.13,0-0.23,0.03-0.31,0.1
		c-0.08,0.06-0.11,0.15-0.11,0.26c0,0.05,0.01,0.1,0.03,0.14c0.02,0.04,0.05,0.08,0.09,0.11c0.04,0.03,0.08,0.06,0.12,0.09
		c0.04,0.03,0.09,0.05,0.13,0.08l0.21,0.12c0.06,0.03,0.11,0.07,0.17,0.1c0.06,0.04,0.11,0.08,0.15,0.13
		c0.04,0.05,0.08,0.11,0.11,0.17c0.03,0.06,0.04,0.14,0.04,0.24C66.52,48.21,66.5,48.31,66.46,48.39z M67.15,43.8
		c-0.05,0.11-0.13,0.2-0.23,0.28c-0.1,0.07-0.21,0.13-0.35,0.17c-0.14,0.04-0.29,0.06-0.45,0.06c-0.1,0-0.19-0.01-0.28-0.02
		c-0.09-0.01-0.18-0.02-0.25-0.04c-0.08-0.02-0.14-0.03-0.19-0.04c-0.05-0.01-0.09-0.02-0.11-0.03v-0.55
		c0.04,0.03,0.09,0.06,0.16,0.09c0.06,0.04,0.12,0.07,0.2,0.1c0.07,0.03,0.15,0.06,0.23,0.08c0.08,0.02,0.17,0.03,0.27,0.03
		c0.1,0,0.18-0.01,0.25-0.04c0.07-0.03,0.12-0.06,0.16-0.1c0.04-0.04,0.07-0.09,0.09-0.14c0.02-0.05,0.02-0.1,0.02-0.15
		c0-0.11-0.04-0.21-0.11-0.29c-0.07-0.08-0.16-0.16-0.26-0.23c-0.11-0.07-0.22-0.14-0.34-0.2c-0.12-0.07-0.24-0.14-0.34-0.22
		c-0.1-0.08-0.19-0.18-0.26-0.28c-0.07-0.11-0.11-0.23-0.11-0.38c0-0.14,0.03-0.26,0.08-0.36c0.05-0.1,0.13-0.19,0.22-0.25
		c0.09-0.07,0.2-0.12,0.33-0.15c0.12-0.03,0.26-0.05,0.4-0.05c0.17,0,0.32,0.01,0.45,0.03c0.13,0.02,0.23,0.04,0.28,0.05v0.49
		c-0.1-0.04-0.21-0.09-0.34-0.13c-0.12-0.04-0.26-0.07-0.41-0.07c-0.13,0-0.24,0.03-0.32,0.09c-0.09,0.06-0.13,0.16-0.13,0.29
		c0,0.09,0.03,0.18,0.11,0.24c0.07,0.07,0.16,0.14,0.27,0.2c0.1,0.06,0.22,0.13,0.34,0.2c0.12,0.07,0.24,0.14,0.34,0.23
		c0.1,0.09,0.19,0.19,0.26,0.3c0.07,0.11,0.11,0.25,0.11,0.4C67.23,43.56,67.21,43.69,67.15,43.8z M70.4,48.7h-0.25v-1.1h-0.92v1.1
		h-0.25v-2.33h0.25v1.01h0.92v-1.01h0.25V48.7z M72.15,44.18c-0.16-0.08-0.29-0.19-0.39-0.33c-0.1-0.14-0.18-0.31-0.23-0.51
		c-0.05-0.2-0.08-0.42-0.08-0.66c0-0.23,0.02-0.44,0.07-0.64c0.04-0.19,0.11-0.36,0.21-0.51c0.1-0.14,0.22-0.26,0.37-0.33
		c0.15-0.08,0.33-0.12,0.54-0.12c0.18,0,0.33,0.02,0.45,0.07c0.13,0.05,0.23,0.12,0.31,0.2c0.08,0.08,0.15,0.18,0.19,0.29
		c0.04,0.11,0.06,0.22,0.06,0.35h-0.57c0-0.06-0.01-0.12-0.02-0.18c-0.01-0.06-0.03-0.12-0.06-0.17c-0.03-0.05-0.07-0.09-0.13-0.12
		c-0.06-0.03-0.13-0.05-0.23-0.05c-0.13,0-0.24,0.04-0.32,0.11c-0.08,0.07-0.14,0.17-0.19,0.28c-0.05,0.11-0.07,0.24-0.09,0.37
		c-0.02,0.13-0.02,0.26-0.02,0.38c0,0.19,0.02,0.36,0.04,0.52c0.03,0.16,0.07,0.29,0.14,0.41c0.06,0.12,0.15,0.2,0.25,0.27
		c0.11,0.06,0.23,0.1,0.39,0.1c0.08,0,0.16-0.01,0.24-0.03c0.08-0.02,0.14-0.04,0.2-0.07c0.06-0.03,0.12-0.05,0.16-0.08
		c0.04-0.03,0.08-0.05,0.09-0.06v0.47c-0.07,0.03-0.18,0.07-0.33,0.12c-0.14,0.04-0.31,0.07-0.49,0.07
		C72.5,44.3,72.31,44.26,72.15,44.18z M74.48,47.97c-0.02,0.14-0.06,0.27-0.12,0.39c-0.06,0.11-0.14,0.21-0.24,0.28
		c-0.1,0.07-0.23,0.11-0.39,0.11c-0.16,0-0.29-0.04-0.4-0.11c-0.1-0.07-0.18-0.16-0.24-0.28c-0.06-0.11-0.1-0.24-0.12-0.39
		c-0.02-0.14-0.03-0.29-0.03-0.43c0-0.15,0.01-0.29,0.03-0.44c0.02-0.14,0.06-0.27,0.12-0.38c0.06-0.11,0.14-0.2,0.24-0.27
		c0.1-0.07,0.24-0.11,0.4-0.11c0.16,0,0.29,0.04,0.39,0.11c0.1,0.07,0.18,0.16,0.24,0.27c0.06,0.11,0.1,0.24,0.12,0.38
		c0.02,0.14,0.03,0.29,0.03,0.44C74.51,47.68,74.5,47.83,74.48,47.97z M78.2,47.32c-0.04,0.08-0.08,0.15-0.15,0.2
		c-0.06,0.05-0.14,0.09-0.22,0.11c-0.09,0.02-0.18,0.03-0.29,0.03h-0.27v1.04h-0.25v-2.33h0.52c0.03,0,0.07,0,0.11,0
		c0.05,0,0.1,0.01,0.15,0.02c0.05,0.01,0.11,0.03,0.16,0.06c0.05,0.03,0.1,0.06,0.14,0.11c0.04,0.05,0.08,0.11,0.1,0.18
		c0.03,0.07,0.04,0.16,0.04,0.27C78.26,47.14,78.24,47.24,78.2,47.32z M79.72,44.25l-0.26-0.85h-1.08l-0.26,0.85h-0.53l1.03-3.12
		h0.61l1.02,3.12H79.72z M81.84,47.32c-0.04,0.08-0.08,0.15-0.15,0.2c-0.06,0.05-0.14,0.09-0.22,0.11
		c-0.09,0.02-0.18,0.03-0.29,0.03h-0.27v1.04h-0.25v-2.33h0.52c0.03,0,0.06,0,0.11,0c0.05,0,0.1,0.01,0.15,0.02
		c0.05,0.01,0.11,0.03,0.16,0.06c0.05,0.03,0.1,0.06,0.14,0.11c0.04,0.05,0.08,0.11,0.11,0.18c0.03,0.07,0.04,0.16,0.04,0.27
		C81.89,47.14,81.88,47.24,81.84,47.32z M84.57,48.7h-0.25v-2.33h0.25V48.7z M86.17,44.25h-1.69v-3.12h0.51v2.72h1.18V44.25z
		 M88.7,48.7h-0.32l-0.92-1.96h-0.01v1.96h-0.24v-2.33h0.32l0.92,1.97h0.01v-1.97h0.24V48.7z M90.61,44.25h-0.53l1.03-3.12h0.61
		l1.02,3.12h-0.53l-0.26-0.85h-1.08L90.61,44.25z M91.52,47.82c0.01,0.12,0.04,0.24,0.08,0.34c0.04,0.1,0.1,0.19,0.18,0.26
		c0.08,0.07,0.18,0.1,0.32,0.1c0.06,0,0.11-0.01,0.15-0.02c0.05-0.01,0.09-0.02,0.12-0.04c0.03-0.01,0.06-0.03,0.09-0.04
		c0.02-0.02,0.04-0.03,0.05-0.04v-0.79H92v-0.22h0.77v1.13c-0.01,0.01-0.04,0.03-0.07,0.06c-0.04,0.03-0.08,0.05-0.14,0.07
		c-0.05,0.02-0.12,0.05-0.19,0.06c-0.07,0.02-0.15,0.03-0.24,0.03c-0.18,0-0.32-0.04-0.44-0.1c-0.12-0.07-0.21-0.16-0.27-0.28
		c-0.07-0.12-0.12-0.25-0.14-0.41c-0.03-0.15-0.04-0.31-0.04-0.48c0-0.15,0.01-0.29,0.04-0.43c0.03-0.14,0.08-0.25,0.14-0.36
		c0.07-0.1,0.15-0.18,0.26-0.25c0.11-0.06,0.23-0.09,0.39-0.09c0.11,0,0.21,0.02,0.3,0.05c0.09,0.03,0.17,0.08,0.23,0.14
		c0.06,0.06,0.11,0.13,0.14,0.21c0.03,0.08,0.05,0.17,0.05,0.27h-0.28c0-0.05-0.01-0.1-0.02-0.16c-0.02-0.05-0.04-0.1-0.07-0.15
		c-0.03-0.04-0.08-0.08-0.13-0.11c-0.06-0.03-0.12-0.04-0.2-0.04c-0.11,0-0.21,0.03-0.28,0.08c-0.07,0.06-0.13,0.13-0.17,0.21
		c-0.04,0.09-0.07,0.18-0.09,0.29c-0.02,0.11-0.02,0.21-0.02,0.32C91.5,47.58,91.5,47.69,91.52,47.82z"/>
	<path class="st0" d="M81.45,46.65c-0.05-0.03-0.11-0.04-0.17-0.05c-0.06,0-0.11-0.01-0.16-0.01h-0.21v0.85h0.27
		c0.16,0,0.27-0.04,0.35-0.11c0.07-0.07,0.1-0.18,0.1-0.31c0-0.11-0.02-0.19-0.06-0.25C81.55,46.72,81.5,46.68,81.45,46.65z"/>
</g>
</svg>
