<?xml version="1.0" encoding="utf-8"?>
<!-- Generator: Adobe Illustrator 26.1.0, SVG Export Plug-In . SVG Version: 6.00 Build 0)  -->
<svg version="1.1" id="Layer_1" xmlns="http://www.w3.org/2000/svg" xmlns:xlink="http://www.w3.org/1999/xlink" x="0px" y="0px"
	 viewBox="0 0 158 54" style="enable-background:new 0 0 158 54;" xml:space="preserve">
<style type="text/css">
	.st0{fill:#FFFFFF;}
</style>
<g>
	<path class="st0" d="M132.09-427.14c-0.56-1.14-1.38-2.09-2.44-2.83c-1.07-0.74-2.39-1.3-3.92-1.66c-1.55-0.36-3.32-0.54-5.27-0.54
		H105.8v3.01l3.69,0.74v21.67l-3.69,0.74v2.96h13.29v-2.94l-4.94-0.74v-7.06h6.21c1.94,0,3.71-0.19,5.27-0.58
		c1.55-0.38,2.88-0.96,3.96-1.72c1.07-0.75,1.9-1.71,2.47-2.85c0.58-1.15,0.87-2.51,0.87-4.05
		C132.93-424.61,132.65-425.99,132.09-427.14 M127.85-420.97c-0.26,0.64-0.67,1.21-1.24,1.69c-0.56,0.47-1.3,0.84-2.2,1.11
		c-0.88,0.26-1.98,0.39-3.27,0.39h-6.99v-10.43h6.99c1.25,0,2.34,0.12,3.22,0.37c0.9,0.25,1.64,0.6,2.21,1.06
		c0.58,0.46,1,1.02,1.27,1.66c0.26,0.63,0.39,1.34,0.39,2.1C128.22-422.29,128.1-421.6,127.85-420.97"/>
	<path class="st0" d="M163.97-406.87l-12.33-25.39h-4.24l-12.25,25.52l-3.28,0.72v2.96h11.35v-2.95l-3.59-0.62l2.09-4.59h15.24
		l2.19,4.59l-3.65,0.62v2.95h11.9v-2.96l-3.37-0.72L163.97-406.87z M143.42-414.87l5.85-13.28l5.88,13.28H143.42z"/>
	<path class="st0" d="M192.98-415.66c-0.57-0.61-1.24-1.12-2-1.55c-0.78-0.43-1.62-0.81-2.49-1.12c-0.89-0.32-1.81-0.59-2.75-0.81
		c-0.95-0.22-1.9-0.43-2.83-0.63c-1.05-0.21-2.05-0.45-2.98-0.68c-0.94-0.24-1.79-0.54-2.52-0.89c-0.75-0.35-1.36-0.8-1.8-1.32
		c-0.46-0.55-0.69-1.22-0.69-2.02c0-0.7,0.23-1.33,0.67-1.87c0.42-0.52,1.01-0.97,1.73-1.33c0.7-0.35,1.53-0.62,2.44-0.8
		c0.91-0.18,1.88-0.27,2.9-0.27c1.46,0,2.73,0.15,3.76,0.45c1.02,0.3,1.78,0.6,2.25,0.89l0.29,0.18l-0.21,0.26
		c-0.15,0.19-0.28,0.42-0.39,0.65c-0.1,0.23-0.15,0.52-0.15,0.87c0,0.32,0.06,0.64,0.18,0.96c0.12,0.32,0.29,0.59,0.54,0.84
		c0.25,0.25,0.56,0.45,0.93,0.62c0.71,0.31,1.82,0.33,2.66-0.01c0.41-0.17,0.75-0.4,1.04-0.7c0.29-0.3,0.51-0.67,0.68-1.09
		c0.16-0.43,0.25-0.9,0.25-1.39c0-0.91-0.32-1.76-0.96-2.53c-0.66-0.79-1.55-1.49-2.64-2.07c-1.11-0.58-2.41-1.05-3.86-1.38
		c-2.86-0.65-6.07-0.69-9.06,0.04c-1.45,0.36-2.77,0.89-3.9,1.59c-1.13,0.69-2.05,1.56-2.74,2.6c-0.68,1.02-1.02,2.21-1.02,3.55
		c0,1.06,0.16,2,0.46,2.79c0.31,0.78,0.73,1.47,1.27,2.05c0.54,0.58,1.17,1.08,1.9,1.47c0.74,0.41,1.54,0.76,2.38,1.05
		c0.85,0.3,1.75,0.55,2.66,0.75c0.93,0.21,1.85,0.4,2.77,0.59c1.1,0.22,2.15,0.45,3.12,0.7c1.01,0.25,1.91,0.57,2.69,0.94
		c0.8,0.39,1.45,0.89,1.92,1.48c0.49,0.62,0.74,1.39,0.74,2.3c0,0.7-0.15,1.3-0.45,1.79c-0.29,0.49-0.69,0.89-1.18,1.22
		c-0.48,0.32-1.03,0.57-1.63,0.74c-0.59,0.17-1.2,0.3-1.81,0.39c-0.61,0.09-1.23,0.14-1.81,0.15c-1.36,0.04-2.41,0.05-3.49-0.12
		c-0.62-0.1-1.19-0.22-1.7-0.38c-0.52-0.16-0.98-0.34-1.38-0.54c-0.42-0.21-0.74-0.42-0.96-0.65l-0.15-0.15l0.09-0.19
		c0.08-0.17,0.14-0.33,0.18-0.5c0.04-0.17,0.06-0.42,0.06-0.75c0-0.28-0.06-0.59-0.18-0.9c-0.11-0.31-0.3-0.6-0.54-0.86
		c-0.24-0.26-0.55-0.48-0.92-0.64c-0.37-0.17-0.8-0.25-1.3-0.25c-0.41,0-0.81,0.08-1.19,0.22c-0.39,0.15-0.73,0.35-1.02,0.63
		c-0.29,0.27-0.53,0.62-0.71,1.03c-0.19,0.42-0.28,0.89-0.28,1.41c0,0.65,0.16,1.26,0.49,1.82c0.34,0.58,0.8,1.11,1.38,1.59
		c0.6,0.49,1.3,0.93,2.09,1.31c0.79,0.38,1.65,0.71,2.56,0.98c0.91,0.26,1.85,0.47,2.82,0.61c0.96,0.14,1.93,0.21,2.86,0.21
		c4.21,0,7.44-0.72,9.58-2.14c2.14-1.42,3.17-3.44,3.17-6.19c0-1.09-0.16-2.06-0.48-2.88C193.99-414.34,193.54-415.06,192.98-415.66
		"/>
	<path class="st0" d="M260.69-423.42c-0.74-1.87-1.8-3.53-3.15-4.92c-1.36-1.4-3.04-2.52-4.98-3.34c-1.94-0.82-4.15-1.23-6.56-1.23
		c-1.6,0-3.11,0.19-4.5,0.57c-1.39,0.38-2.69,0.91-3.85,1.58c-1.16,0.68-2.22,1.5-3.13,2.45c-0.91,0.96-1.7,2.02-2.34,3.16
		c-0.64,1.14-1.13,2.38-1.47,3.69c-0.34,1.31-0.51,2.68-0.51,4.08c0,2.12,0.38,4.12,1.13,5.94c0.75,1.83,1.83,3.43,3.2,4.78
		c1.37,1.35,3.04,2.42,4.98,3.19c1.93,0.77,4.12,1.15,6.5,1.15c2.36,0,4.55-0.39,6.49-1.17c1.94-0.77,3.62-1.85,4.99-3.2
		c1.37-1.34,2.44-2.96,3.2-4.79c0.75-1.83,1.13-3.84,1.13-5.96C261.8-419.54,261.43-421.55,260.69-423.42 M256.3-413.34
		c-0.44,1.34-1.12,2.54-2.02,3.56c-0.9,1.04-2.05,1.88-3.42,2.5c-1.37,0.62-3,0.94-4.85,0.94c-1.86,0-3.5-0.31-4.87-0.92
		c-1.38-0.62-2.53-1.45-3.43-2.48c-0.9-1.03-1.58-2.23-2.01-3.55c-0.43-1.32-0.65-2.72-0.65-4.14c0-1.38,0.22-2.77,0.65-4.11
		c0.43-1.36,1.11-2.59,2.01-3.66c0.9-1.06,2.05-1.94,3.42-2.6c1.37-0.66,3.02-1,4.88-1c1.88,0,3.53,0.33,4.9,0.99
		c1.37,0.66,2.52,1.53,3.42,2.59c0.9,1.07,1.57,2.29,1.99,3.64c0.42,1.35,0.64,2.73,0.64,4.11
		C256.96-416.05,256.73-414.66,256.3-413.34"/>
	<polygon class="st0" points="226.16,-403.06 225.78,-410.12 222.3,-410.12 221.8,-407.03 216.06,-406.01 216.06,-403.06 	"/>
	<polygon class="st0" points="207.82,-406.75 207.82,-415.89 219.44,-415.89 219.44,-419.86 207.82,-419.86 207.82,-428.21 
		221.38,-428.21 221.89,-424.93 225.36,-424.93 225.75,-432.17 199.46,-432.17 199.46,-429.17 203.16,-428.43 203.16,-406.76 
		199.46,-406.02 199.46,-403.06 212.75,-403.06 212.75,-406.01 	"/>
	<path class="st0" d="M125.38-394.64c-0.4-0.19-1.5-0.67-2.66-0.67c-0.78,0-1.42,0.46-1.42,1.44c0,2.28,4.82,2.08,4.82,5.25
		c0,2.12-1.68,2.92-3.72,2.92c-1.14,0-2.28-0.31-2.6-0.39v-1.2c0.46,0.27,1.65,0.89,2.83,0.89c0.94,0,1.86-0.39,1.86-1.73
		c0-2.4-4.82-2.18-4.82-5.31c0-1.63,1.25-2.57,3.34-2.57c1.02,0,1.99,0.19,2.38,0.27V-394.64z"/>
	<path class="st0" d="M131.7-393.94c0.09-0.25,0.25-0.77,0.25-0.87c0-0.6-0.55-0.61-1.15-0.7v-0.33h2.79l3.62,9.99h-1.54l-1.11-3.09
		h-3.78l-1.11,3.09h-0.92L131.7-393.94z M131.03-389.64h3.28l-1.69-4.33L131.03-389.64z"/>
	<path class="st0" d="M140.81-393.94c0-1.38-0.21-1.32-1.49-1.57v-0.33h3.13l4.67,8.07h0.03v-8.07h0.93v9.98h-1.42l-4.9-8.44h-0.03
		v8.44h-0.93V-393.94z"/>
	<path class="st0" d="M159.47-393.82c0-1.47-0.04-1.47-1.41-1.69v-0.33h7.11l0.04,2.19h-0.41c0-1.19-0.64-1.5-1.6-1.5h-1.16
		c-0.74,0-0.94,0.06-0.94,0.77v2.95h1.8c1.04,0,1.13-0.65,1.21-1.14h0.42v3.12h-0.42c0-0.8-0.32-1.28-1.21-1.28h-1.8v4.87h-1.63
		V-393.82z"/>
	<path class="st0" d="M169.27-393.82c0-1.47-0.03-1.47-1.41-1.69v-0.33h3.65c1.11,0,4.18,0,4.18,2.66c0,1.69-1.1,2.25-2.27,2.45
		l2.73,4.88h-1.71l-2.62-4.61h-0.92v4.61h-1.63V-393.82z M170.9-391.17h0.85c0.96,0,2.32-0.27,2.32-1.93c0-1.6-0.92-2.05-2.17-2.05
		c-0.99,0-0.99,0.27-0.99,1.34V-391.17z"/>
	<path class="st0" d="M181.69-393.94c0.09-0.25,0.25-0.77,0.25-0.87c0-0.6-0.55-0.61-1.15-0.7v-0.33h2.79l3.62,9.99h-1.54
		l-1.11-3.09h-3.78l-1.11,3.09h-0.92L181.69-393.94z M181.02-389.64h3.28l-1.69-4.33L181.02-389.64z"/>
	<path class="st0" d="M190.79-393.94c0-1.38-0.21-1.32-1.49-1.57v-0.33h3.13l4.67,8.07h0.03v-8.07h0.93v9.98h-1.42l-4.9-8.44h-0.03
		v8.44h-0.93V-393.94z"/>
	<path class="st0" d="M209.38-386.24c-0.37,0.15-1.57,0.55-3.04,0.55c-3.04,0-4.22-1.94-4.22-5.27c0-2.74,0.82-5.04,4.13-5.04
		c2.31,0,3.22,1.01,3.38,2.2h-1.78c-0.08-0.49-0.39-1.5-1.74-1.5c-2.03,0-2.36,2.45-2.36,3.98c0,1.66,0.18,4.94,3.04,4.94
		c1.29,0,2.2-0.52,2.58-0.8V-386.24z"/>
	<path class="st0" d="M213.47-393.88c0-1.25-0.04-1.26-1.49-1.45v-0.33l3.12-0.34v10.15h-1.63V-393.88z"/>
	<path class="st0" d="M224.82-394.64c-0.4-0.19-1.5-0.67-2.66-0.67c-0.78,0-1.42,0.46-1.42,1.44c0,2.28,4.82,2.08,4.82,5.25
		c0,2.12-1.68,2.92-3.72,2.92c-1.14,0-2.28-0.31-2.6-0.39v-1.2c0.46,0.27,1.65,0.89,2.84,0.89c0.93,0,1.85-0.39,1.85-1.73
		c0-2.4-4.82-2.18-4.82-5.31c0-1.63,1.25-2.57,3.34-2.57c1.02,0,1.99,0.19,2.37,0.27V-394.64z"/>
	<path class="st0" d="M235.98-386.24c-0.37,0.15-1.57,0.55-3.04,0.55c-3.04,0-4.21-1.94-4.21-5.27c0-2.74,0.82-5.04,4.12-5.04
		c2.31,0,3.22,1.01,3.38,2.2h-1.78c-0.07-0.49-0.39-1.5-1.74-1.5c-2.03,0-2.36,2.45-2.36,3.98c0,1.66,0.18,4.94,3.04,4.94
		c1.29,0,2.2-0.52,2.58-0.8V-386.24z"/>
	<path class="st0" d="M239.37-390.81c0-3.19,0.89-5.19,4.11-5.19c3.09,0,4.02,2,4.02,5.19c0,3.15-0.93,5.12-4.02,5.12
		C240.35-385.69,239.37-387.63,239.37-390.81 M243.48-386.39c2.3,0,2.39-2.52,2.39-4.42c0-1.94-0.13-4.49-2.39-4.49
		c-2.3,0-2.48,2.49-2.48,4.49C241-388.97,241.22-386.39,243.48-386.39"/>
</g>
<g>
	<g>
		<path class="st0" d="M45.85,15.57c-0.36-0.73-0.89-1.34-1.56-1.81c-0.69-0.48-1.53-0.83-2.52-1.07c-0.99-0.23-2.13-0.35-3.38-0.35
			H29v1.93l2.37,0.47v13.89L29,29.1V31h8.52v-1.89l-3.16-0.47v-4.53h3.98c1.24,0,2.38-0.12,3.38-0.37c0.99-0.24,1.84-0.61,2.54-1.1
			c0.68-0.48,1.22-1.1,1.59-1.83c0.37-0.73,0.56-1.61,0.56-2.6C46.39,17.19,46.21,16.3,45.85,15.57 M43.13,19.52
			c-0.16,0.41-0.43,0.78-0.79,1.08c-0.36,0.3-0.83,0.54-1.41,0.71c-0.57,0.17-1.27,0.25-2.1,0.25h-4.48v-6.69h4.48
			c0.8,0,1.5,0.08,2.06,0.24c0.58,0.16,1.05,0.39,1.41,0.68c0.37,0.3,0.64,0.65,0.81,1.07c0.17,0.41,0.25,0.86,0.25,1.35
			C43.37,18.67,43.29,19.12,43.13,19.52"/>
		<path class="st0" d="M66.29,28.56l-7.9-16.28h-2.72l-7.86,16.36l-2.1,0.46V31h7.28v-1.89l-2.3-0.4l1.34-2.94h9.77l1.4,2.94
			l-2.34,0.4V31h7.63v-1.9l-2.16-0.46L66.29,28.56z M53.12,23.43l3.75-8.51l3.77,8.51H53.12z"/>
		<path class="st0" d="M84.89,22.93c-0.36-0.39-0.8-0.72-1.28-0.99c-0.5-0.28-1.04-0.52-1.6-0.72c-0.57-0.2-1.16-0.38-1.76-0.52
			c-0.61-0.14-1.22-0.28-1.82-0.41c-0.67-0.14-1.32-0.29-1.91-0.44c-0.6-0.16-1.15-0.35-1.62-0.57c-0.48-0.23-0.87-0.51-1.15-0.85
			c-0.3-0.35-0.44-0.78-0.44-1.29c0-0.45,0.15-0.85,0.43-1.2c0.27-0.34,0.64-0.62,1.11-0.85c0.45-0.22,0.98-0.4,1.56-0.51
			c0.58-0.12,1.21-0.17,1.86-0.17c0.94,0,1.75,0.1,2.41,0.29c0.66,0.19,1.14,0.38,1.44,0.57l0.18,0.11l-0.13,0.17
			c-0.1,0.12-0.18,0.27-0.25,0.42c-0.06,0.14-0.1,0.33-0.1,0.56c0,0.2,0.04,0.41,0.11,0.61c0.07,0.2,0.19,0.38,0.35,0.54
			c0.16,0.16,0.36,0.29,0.6,0.4c0.46,0.2,1.17,0.21,1.71-0.01c0.26-0.11,0.48-0.26,0.67-0.45c0.18-0.19,0.33-0.43,0.43-0.7
			c0.11-0.27,0.16-0.57,0.16-0.89c0-0.58-0.21-1.13-0.61-1.62c-0.42-0.51-0.99-0.96-1.69-1.33c-0.71-0.37-1.54-0.67-2.48-0.88
			c-1.83-0.42-3.89-0.44-5.8,0.03c-0.93,0.23-1.77,0.57-2.5,1.02c-0.72,0.44-1.31,1-1.75,1.66c-0.43,0.65-0.65,1.42-0.65,2.27
			c0,0.68,0.1,1.28,0.3,1.79c0.2,0.5,0.47,0.94,0.81,1.31c0.34,0.37,0.75,0.69,1.22,0.95c0.47,0.26,0.98,0.49,1.52,0.67
			c0.55,0.19,1.12,0.35,1.7,0.48c0.59,0.13,1.19,0.26,1.78,0.38c0.7,0.14,1.38,0.29,2,0.45c0.65,0.16,1.23,0.36,1.72,0.61
			c0.51,0.25,0.93,0.57,1.23,0.95c0.31,0.39,0.47,0.89,0.47,1.47c0,0.45-0.1,0.83-0.29,1.15c-0.19,0.31-0.44,0.57-0.75,0.78
			c-0.31,0.2-0.66,0.36-1.04,0.48c-0.38,0.11-0.77,0.2-1.16,0.25c-0.39,0.06-0.79,0.09-1.16,0.1C77.82,29,77.15,29,76.46,28.9
			c-0.39-0.06-0.76-0.14-1.09-0.24c-0.33-0.1-0.63-0.22-0.89-0.34c-0.27-0.14-0.47-0.27-0.61-0.42l-0.1-0.1l0.06-0.12
			c0.05-0.11,0.09-0.21,0.12-0.32c0.03-0.11,0.04-0.27,0.04-0.48c0-0.18-0.04-0.38-0.11-0.58c-0.07-0.2-0.19-0.38-0.34-0.55
			c-0.16-0.17-0.35-0.31-0.59-0.41c-0.23-0.11-0.51-0.16-0.83-0.16c-0.26,0-0.52,0.05-0.77,0.14c-0.25,0.09-0.47,0.23-0.66,0.4
			c-0.19,0.17-0.34,0.4-0.46,0.66c-0.12,0.27-0.18,0.57-0.18,0.91c0,0.42,0.11,0.81,0.31,1.17c0.21,0.37,0.51,0.71,0.89,1.02
			c0.38,0.32,0.83,0.6,1.34,0.84c0.51,0.25,1.06,0.46,1.64,0.63c0.58,0.17,1.19,0.3,1.81,0.39c0.62,0.09,1.24,0.14,1.83,0.14
			c2.7,0,4.77-0.46,6.14-1.37c1.37-0.91,2.03-2.2,2.03-3.97c0-0.7-0.1-1.32-0.31-1.84C85.53,23.77,85.25,23.31,84.89,22.93"/>
		<path class="st0" d="M128.29,17.95c-0.47-1.2-1.15-2.26-2.02-3.15c-0.87-0.9-1.95-1.61-3.19-2.14c-1.25-0.53-2.66-0.79-4.21-0.79
			c-1.02,0-1.99,0.12-2.89,0.36c-0.89,0.24-1.72,0.58-2.47,1.02c-0.75,0.43-1.42,0.96-2.01,1.57c-0.59,0.61-1.09,1.29-1.5,2.02
			c-0.41,0.73-0.73,1.53-0.94,2.36c-0.22,0.84-0.33,1.72-0.33,2.61c0,1.36,0.24,2.64,0.72,3.81c0.48,1.17,1.17,2.2,2.05,3.06
			c0.88,0.86,1.95,1.55,3.19,2.04c1.24,0.49,2.64,0.74,4.17,0.74c1.52,0,2.91-0.25,4.16-0.75c1.24-0.5,2.32-1.18,3.2-2.05
			c0.88-0.86,1.57-1.9,2.05-3.07c0.48-1.17,0.73-2.46,0.73-3.82C129,20.44,128.76,19.15,128.29,17.95 M125.47,24.41
			c-0.28,0.86-0.72,1.63-1.29,2.28c-0.58,0.66-1.32,1.2-2.2,1.6c-0.88,0.4-1.93,0.6-3.11,0.6c-1.19,0-2.25-0.2-3.12-0.59
			c-0.88-0.4-1.62-0.93-2.2-1.59c-0.58-0.66-1.01-1.43-1.29-2.28c-0.28-0.85-0.42-1.74-0.42-2.66c0-0.89,0.14-1.77,0.42-2.64
			c0.28-0.87,0.71-1.66,1.29-2.34c0.58-0.68,1.31-1.24,2.19-1.67c0.88-0.43,1.93-0.64,3.13-0.64c1.21,0,2.26,0.21,3.14,0.63
			c0.88,0.42,1.62,0.98,2.2,1.66c0.58,0.68,1.01,1.47,1.28,2.34c0.27,0.86,0.41,1.75,0.41,2.63
			C125.89,22.67,125.75,23.56,125.47,24.41"/>
		<polygon class="st0" points="106.15,31 105.91,26.48 103.68,26.48 103.36,28.46 99.68,29.11 99.68,31 		"/>
		<polygon class="st0" points="94.39,28.64 94.39,22.78 101.85,22.78 101.85,20.23 94.39,20.23 94.39,14.88 103.09,14.88 
			103.42,16.98 105.64,16.98 105.89,12.34 89.04,12.34 89.04,14.27 91.41,14.74 91.41,28.63 89.04,29.1 89.04,31 97.56,31 
			97.56,29.11 		"/>
		<path class="st0" d="M41.55,36.4c-0.26-0.12-0.96-0.43-1.7-0.43c-0.5,0-0.91,0.29-0.91,0.92c0,1.46,3.09,1.33,3.09,3.37
			c0,1.36-1.07,1.87-2.39,1.87c-0.73,0-1.46-0.2-1.67-0.25v-0.77c0.3,0.17,1.06,0.57,1.82,0.57c0.6,0,1.19-0.25,1.19-1.11
			c0-1.54-3.09-1.4-3.09-3.41c0-1.05,0.8-1.65,2.14-1.65c0.66,0,1.28,0.12,1.52,0.17V36.4z"/>
		<path class="st0" d="M45.6,36.85c0.06-0.16,0.16-0.49,0.16-0.56c0-0.38-0.35-0.39-0.73-0.45v-0.21h1.79l2.32,6.4h-0.99l-0.71-1.98
			h-2.42l-0.71,1.98h-0.59L45.6,36.85z M45.17,39.61h2.1l-1.09-2.78L45.17,39.61z"/>
		<path class="st0" d="M51.44,36.85c0-0.88-0.13-0.85-0.95-1.01v-0.21h2.01l3,5.17h0.02v-5.17h0.6v6.4H55.2l-3.14-5.41h-0.02v5.41
			h-0.6V36.85z"/>
		<path class="st0" d="M63.41,36.92c0-0.94-0.03-0.94-0.9-1.08v-0.21h4.55l0.03,1.41h-0.27c0-0.76-0.41-0.96-1.03-0.96h-0.74
			c-0.48,0-0.6,0.04-0.6,0.49v1.89h1.15c0.67,0,0.72-0.42,0.78-0.73h0.27v2h-0.27c0-0.51-0.21-0.82-0.78-0.82h-1.15v3.12h-1.05
			V36.92z"/>
		<path class="st0" d="M69.68,36.92c0-0.94-0.02-0.94-0.9-1.08v-0.21h2.34c0.71,0,2.68,0,2.68,1.7c0,1.08-0.7,1.45-1.45,1.57
			l1.75,3.13H73l-1.68-2.96h-0.59v2.96h-1.05V36.92z M70.73,38.62h0.54c0.62,0,1.48-0.17,1.48-1.24c0-1.03-0.59-1.31-1.39-1.31
			c-0.64,0-0.64,0.17-0.64,0.86V38.62z"/>
		<path class="st0" d="M77.64,36.85c0.06-0.16,0.16-0.49,0.16-0.56c0-0.38-0.35-0.39-0.73-0.45v-0.21h1.79l2.32,6.4h-0.99
			l-0.71-1.98h-2.42l-0.71,1.98h-0.59L77.64,36.85z M77.22,39.61h2.1l-1.08-2.78L77.22,39.61z"/>
		<path class="st0" d="M83.48,36.85c0-0.88-0.13-0.85-0.95-1.01v-0.21h2.01l3,5.17h0.02v-5.17h0.6v6.4h-0.91l-3.14-5.41h-0.02v5.41
			h-0.6V36.85z"/>
		<path class="st0" d="M95.4,41.78c-0.24,0.1-1.01,0.35-1.95,0.35c-1.95,0-2.7-1.25-2.7-3.38c0-1.76,0.52-3.23,2.64-3.23
			c1.48,0,2.06,0.65,2.17,1.41h-1.14c-0.05-0.31-0.25-0.96-1.11-0.96c-1.3,0-1.51,1.57-1.51,2.55c0,1.06,0.11,3.16,1.95,3.16
			c0.83,0,1.41-0.33,1.65-0.51V41.78z"/>
		<path class="st0" d="M98.02,36.89c0-0.8-0.03-0.81-0.95-0.93v-0.21l2-0.22v6.51h-1.05V36.89z"/>
		<path class="st0" d="M105.29,36.4c-0.26-0.12-0.96-0.43-1.7-0.43c-0.5,0-0.91,0.29-0.91,0.92c0,1.46,3.09,1.33,3.09,3.37
			c0,1.36-1.07,1.87-2.39,1.87c-0.73,0-1.46-0.2-1.67-0.25v-0.77c0.29,0.17,1.06,0.57,1.82,0.57c0.6,0,1.19-0.25,1.19-1.11
			c0-1.54-3.09-1.4-3.09-3.41c0-1.05,0.8-1.65,2.14-1.65c0.66,0,1.27,0.12,1.52,0.17V36.4z"/>
		<path class="st0" d="M112.45,41.78c-0.24,0.1-1.01,0.35-1.95,0.35c-1.95,0-2.7-1.25-2.7-3.38c0-1.76,0.52-3.23,2.64-3.23
			c1.48,0,2.06,0.65,2.17,1.41h-1.14c-0.05-0.31-0.25-0.96-1.11-0.96c-1.3,0-1.51,1.57-1.51,2.55c0,1.06,0.11,3.16,1.95,3.16
			c0.83,0,1.41-0.33,1.66-0.51V41.78z"/>
		<path class="st0" d="M114.62,38.85c0-2.04,0.57-3.33,2.63-3.33c1.98,0,2.58,1.28,2.58,3.33c0,2.02-0.6,3.28-2.58,3.28
			C115.25,42.13,114.62,40.89,114.62,38.85 M117.26,41.69c1.47,0,1.53-1.62,1.53-2.83c0-1.25-0.09-2.88-1.53-2.88
			c-1.47,0-1.59,1.6-1.59,2.88C115.67,40.03,115.81,41.69,117.26,41.69"/>
	</g>
</g>
</svg>
