<?xml version="1.0" encoding="utf-8"?>
<!-- Generator: Adobe Illustrator 26.1.0, SVG Export Plug-In . SVG Version: 6.00 Build 0)  -->
<svg version="1.1" id="Layer_1" xmlns="http://www.w3.org/2000/svg" xmlns:xlink="http://www.w3.org/1999/xlink" x="0px" y="0px"
	 viewBox="0 0 158 54" style="enable-background:new 0 0 158 54;" xml:space="preserve">
<style type="text/css">
	.st0{fill:#FFFFFF;}
</style>
<g>
	<g id="nCzJRW_00000008852480134489689770000001266523178608390794_">
		<g>
			<path class="st0" d="M99.7,11.7c2.63,7.03,5.26,14.06,7.89,21.09c0.09-0.02,0.18-0.04,0.27-0.06c0-2.02,0-4.04,0-6.06
				c-0.01-4.67-0.02-9.34-0.06-14.02c0-0.63,0.23-0.87,0.83-0.79c0.06,0.01,0.12,0,0.18,0c1.52,0.02,1.35-0.15,1.35,1.31
				c0.01,8.55-0.06,17.09,0.05,25.64c0.02,1.72-0.81,2.64-1.97,3.65c-2.72-7.52-5.41-14.97-8.1-22.43
				c-0.08,0.01-0.15,0.03-0.23,0.04c-0.01,0.3-0.04,0.61-0.04,0.91c0,4.52-0.01,9.05,0,13.57c0,2.19,0.04,4.37,0.04,6.56
				c0,0.93-0.12,0.96-1.51,0.96c-0.77,0-0.73-0.41-0.73-0.97c-0.02-5.08-0.08-10.17-0.1-15.25c-0.02-3.9,0-7.81,0.02-11.71
				c0-0.25,0.07-0.54,0.22-0.73c0.5-0.65,1.04-1.27,1.57-1.91C99.48,11.56,99.59,11.63,99.7,11.7z"/>
			<path class="st0" d="M138.11,27.09c0.22-3.68,0.49-7.3,1.83-10.74c0.43-1.11,1.01-2.22,1.74-3.16c2-2.6,4.99-2.58,7.06-0.02
				c1.66,2.05,2.46,4.49,2.97,7.03c1.15,5.79,0.96,11.53-0.98,17.13c-0.48,1.4-1.24,2.76-2.14,3.94c-1.68,2.18-4.4,2.24-6.34,0.28
				c-1.86-1.89-2.68-4.31-3.14-6.83C138.64,32.19,138.43,29.63,138.11,27.09z M149.82,27.18c-0.12-1.27-0.23-3.13-0.48-4.97
				c-0.29-2.14-0.74-4.26-2.07-6.05c-1.14-1.55-2.8-1.58-3.88,0.01c-0.64,0.93-1.15,2.01-1.45,3.1c-1.15,4.24-1.44,8.55-0.71,12.9
				c0.37,2.16,0.95,4.27,2.29,6.08c1.01,1.36,2.17,1.5,3.34,0.27c0.65-0.69,1.2-1.54,1.58-2.42
				C149.61,33.45,149.74,30.61,149.82,27.18z"/>
			<path class="st0" d="M70.04,26.78c-0.19,3.7-0.49,7.36-1.8,10.83c-0.48,1.28-1.14,2.57-2.01,3.6c-1.93,2.28-4.58,2.25-6.61,0.07
				c-1.69-1.81-2.51-4.07-3.03-6.42c-1.28-5.77-0.98-11.51,0.56-17.19c0.46-1.69,1.19-3.28,2.37-4.62c1.96-2.23,4.51-2.31,6.54-0.14
				c1.93,2.07,2.76,4.67,3.23,7.37C69.66,22.42,69.8,24.61,70.04,26.78z M67.48,27.82c-0.2-2.35-0.28-3.95-0.49-5.53
				c-0.27-2-0.75-3.95-1.83-5.7c-1.32-2.13-3.16-2.17-4.5-0.04c-0.54,0.86-0.98,1.84-1.24,2.82c-1.22,4.58-1.35,9.22-0.49,13.88
				c0.31,1.69,0.83,3.33,1.95,4.7c1.26,1.54,2.74,1.58,3.88-0.04c0.67-0.95,1.28-2.04,1.53-3.16
				C66.85,32.23,67.17,29.65,67.48,27.82z"/>
			<path class="st0" d="M135.73,43.04c-1.77-4.22-3.39-8.27-5.2-12.25c-0.83-1.83-1-3.12,0.56-4.84c2.2-2.44,1.93-5.59,0.94-8.57
				c-0.46-1.39-1.84-1.95-3.43-1.6c0,8.68,0,17.38,0,26.18c-0.87,0-1.64,0-2.49,0c0-0.63,0-1.27,0-1.91
				c0-9.04,0.01-18.09-0.02-27.13c0-0.67,0.19-0.9,0.84-0.89c0.8,0.02,1.6-0.01,2.39-0.03c2.22-0.05,3.76,1.02,4.76,2.94
				c1.13,2.16,1.16,4.49,1.02,6.83c-0.14,2.31-0.79,4.46-2.1,6.41c-0.19,0.29-0.21,0.85-0.07,1.18c1.38,3.23,2.8,6.45,4.25,9.65
				c0.28,0.61,0.28,1.08-0.08,1.64C136.63,41.37,136.24,42.13,135.73,43.04z"/>
			<path class="st0" d="M27.19,19.54c-0.1,2.07-0.67,3.62-2.31,4.76c-1.26,0.89-2.42,1.82-4,2.15c-1.55,0.32-2.83-0.05-3.91-1.09
				c-0.89-0.86-1.81-1.74-2.46-2.78c-0.68-1.07-1.15-2.31-1.52-3.54c-0.17-0.56-0.08-1.36,0.2-1.88c1.13-2.11,2.84-3.54,5.31-3.8
				c1.46-0.15,2.27,0.41,2.81,1.77c0.72,1.81,0.82,3.56-0.54,5.17c-0.51,0.61-1.53,0.85-2.04,0.44c-0.52-0.42-0.56-1.19-0.04-1.87
				c0.37-0.49,0.27-0.96-0.12-1.25c-0.35-0.27-0.91-0.52-1.3-0.42c-0.28,0.07-0.63,0.74-0.58,1.09c0.23,1.58,1,2.91,2.36,3.8
				c1.65,1.08,3.13,0.35,4.09-2.03c0.28-0.68,0.16-1.58,0.02-2.35c-0.31-1.73-0.84-3.39-2.18-4.65c-0.93-0.87-1.96-1.16-3.26-0.79
				c-1.91,0.54-3.64,1.36-5.08,2.74c-0.68,0.65-1.07,1.39-1.02,2.35c0.03,0.51,0.06,1.11-0.67,1.1c-0.65-0.01-1.18-0.32-1.04-1.11
				c0.12-0.72,0.14-1.53,0.51-2.11c2-3.17,4.9-5.2,8.55-5.93c1.83-0.37,3.65,0.07,4.64,1.96c1.12,2.14,2.2,4.3,3.21,6.5
				C27.12,18.35,27.11,19.08,27.19,19.54z"/>
			<path class="st0" d="M46.81,43.23c-0.26-0.62-0.43-1.02-0.59-1.42c-1.75-4.23-3.49-8.47-5.27-12.68
				c-0.33-0.79-0.33-1.33,0.33-2.01c2.5-2.55,2.83-5.69,2.13-8.99c-0.38-1.8-1.94-2.67-3.79-2.29c0,8.67,0,17.35,0,26.16
				c-0.65,0-1.32,0.05-1.98-0.03c-0.19-0.03-0.46-0.46-0.46-0.71c-0.03-1.83,0.01-3.66,0-5.5c-0.01-6.92-0.03-13.83-0.05-20.75
				c0-0.97,0-1.93,0-3.16c1.72,0.17,3.44,0.19,5.08,0.55c1.64,0.37,2.65,1.68,3.17,3.22c1.46,4.28,1.2,8.44-1.2,12.34
				c-0.35,0.57-0.43,0.99-0.15,1.61c1.44,3.21,2.82,6.44,4.25,9.65c0.24,0.55,0.26,0.96-0.06,1.47
				C47.76,41.43,47.37,42.23,46.81,43.23z"/>
			<path class="st0" d="M94.26,24.63c0,1.27,0,2.47,0,3.76c-2.23,0-4.48,0-6.83,0c0,3.25,0,6.48,0,9.8c2.26,0,4.52,0,6.9,0
				c0,1.23,0.02,2.37-0.02,3.5c0,0.13-0.32,0.34-0.49,0.34c-2.92,0.02-5.84,0.02-8.82,0.02c0-9.99,0-19.85,0-29.82
				c0.29-0.02,0.6-0.04,0.91-0.05c2.54-0.05,5.08-0.08,7.62-0.14c0.47-0.01,0.73,0.09,0.73,0.61c-0.01,1.03,0,2.06,0,3.25
				c-0.26,0-0.57,0-0.88,0c-1.74-0.01-3.49-0.01-5.23-0.05c-0.58-0.01-0.76,0.2-0.76,0.77c-0.01,2.39-0.06,4.78-0.12,7.18
				c-0.01,0.56,0.15,0.79,0.75,0.78c1.74-0.01,3.48,0.02,5.22,0.04C93.55,24.63,93.86,24.63,94.26,24.63z"/>
			<path class="st0" d="M82.34,11.56c0,1.48,0,2.74,0,4.08c-0.26,0.03-0.54,0.07-0.83,0.09c-2.41,0.18-4.15,1.35-5.29,3.48
				c-0.98,1.83-1.54,3.76-1.68,5.82c-0.2,2.94-0.28,5.87,1.01,8.61c0.46,0.98,1.03,1.94,1.7,2.78c1.24,1.54,2.11,1.85,5.26,2.25
				c0,1.14,0.03,2.28-0.03,3.42c-0.01,0.15-0.45,0.41-0.68,0.41c-2.56-0.03-4.72-0.97-6.38-2.94c-1.83-2.17-2.67-4.77-3.14-7.51
				c-0.85-4.99-0.6-9.88,1.47-14.59c1.13-2.58,2.87-4.54,5.66-5.34C80.3,11.86,81.24,11.76,82.34,11.56z"/>
			<path class="st0" d="M5.99,22.57c0.02-2.18,0.97-3.21,2.27-2.89c0.4,0.1,0.95,0.49,1.02,0.82c0.28,1.5,1.34,2.39,2.33,3.36
				c0.32,0.31,0.63,0.64,0.99,0.88c2.1,1.41,3.24,3.46,3.88,5.84c0.14,0.51,0.37,1,0.54,1.5c0.43,1.25,1.23,2.08,2.5,2.55
				c4.08,1.51,6,4.64,6.53,8.82c0.07,0.57,0.56,1.09,0.82,1.65c0.12,0.26,0.24,0.6,0.16,0.85c-0.04,0.14-0.54,0.29-0.73,0.2
				c-0.46-0.22-0.99-0.49-1.27-0.9c-0.73-1.07-1.43-2.18-1.97-3.35c-0.71-1.54-1.62-2.56-3.41-2.99c-2.44-0.59-3.89-2.53-5.16-4.58
				c-1.14-1.85-1.96-3.93-3.63-5.42c-0.76-0.68-1.6-1.28-2.36-1.97c-0.47-0.43-0.97-0.89-1.25-1.44C6.68,24.4,6.27,23.24,5.99,22.57
				z"/>
			<path class="st0" d="M119.36,15.86c0,8.78,0,17.4,0,26.18c-0.71,0-1.35,0.04-1.98-0.03c-0.17-0.02-0.44-0.38-0.44-0.58
				c-0.01-4.34,0.01-8.69,0.01-13.03c0.01-4.13,0-8.26,0-12.46c-1.73,0-3.31,0-5.09,0c0-1.11-0.03-2.24,0.04-3.38
				c0.01-0.17,0.5-0.43,0.77-0.43c2.33-0.01,4.67,0.04,7,0.05c1.36,0,2.72-0.03,4.08-0.08c0.63-0.02,0.84,0.21,0.78,0.83
				c-0.06,0.73-0.06,1.48-0.05,2.21c0.01,0.53-0.2,0.73-0.73,0.73C122.33,15.85,120.91,15.86,119.36,15.86z"/>
			<path class="st0" d="M1.02,26.44c0.02-0.15,0.03-0.45,0.08-0.74c0.21-1.14,0.77-1.8,1.57-1.91c0.78-0.1,1.81,0.49,2.09,1.48
				c0.6,2.19,2.07,3.62,3.76,4.99c1.82,1.47,2.97,3.44,3.99,5.56c0.78,1.62,1.91,3.12,3.14,4.45c1.7,1.83,3.28,3.72,4.43,5.94
				c0.33,0.65,0.46,1.4,0.76,2.06c0.21,0.46,0.45,1,0.84,1.27c0.54,0.38,0.43,0.82,0.18,1.11c-0.19,0.22-0.87,0.35-1.03,0.2
				c-0.59-0.55-1.2-1.16-1.56-1.88c-1.28-2.56-3.2-4.52-5.51-6.13c-1.95-1.36-3.1-3.32-4.05-5.39c-0.56-1.2-1.4-1.99-2.43-2.72
				c-1.42-1-2.86-1.99-4.14-3.15C1.69,30.29,1.06,28.53,1.02,26.44z"/>
			<path class="st0" d="M53.01,12.16c0,7.3,0,14.48,0,21.66c0,2.42-0.05,4.85-0.03,7.27c0.01,0.72-0.19,1-0.94,0.97
				c-1.81-0.06-1.53,0.13-1.54-1.59c-0.01-8.99,0-17.97-0.01-26.96c0-1.42-0.01-1.42,1.44-1.41C52.23,12.11,52.52,12.14,53.01,12.16
				z"/>
			<path class="st0" d="M9.29,6.16c0.5,0.33,0.76,0.47,0.97,0.65c0.83,0.73,1.64,1.5,2.48,2.22c0.69,0.59,0.66,1.03-0.13,1.47
				c-0.46,0.25-0.87,0.58-1.31,0.87c-0.6,0.4-1.02,0.25-1.18-0.41c-0.3-1.22-0.62-2.43-0.9-3.65C9.16,7.01,9.25,6.68,9.29,6.16z"/>
			<path class="st0" d="M30.51,6.98c0.22,0.17,0.46,0.26,0.49,0.4c0.04,0.16-0.04,0.43-0.17,0.54c-1.12,0.95-2.27,1.87-3.4,2.79
				c-0.02,0.02-0.05,0.03-0.07,0.05c-0.47,0.25-1,0.19-1.06-0.33c-0.08-0.67-1.68-1.25-0.37-1.9C27.34,7.8,28.96,7.48,30.51,6.98z"
				/>
			<path class="st0" d="M74.14,48.22c0,1.66-1.03,2.81-2.53,2.8c-1.48,0-2.59-1.2-2.59-2.8c0-1.58,1.13-2.81,2.59-2.82
				C73.1,45.4,74.14,46.55,74.14,48.22z M73.41,48.28c0-1.28-0.74-2.21-1.77-2.24c-1.06-0.03-1.89,0.97-1.88,2.24
				c0.02,1.2,0.78,2.12,1.79,2.14C72.6,50.45,73.41,49.52,73.41,48.28z"/>
			<path class="st0" d="M29.02,15.86c-0.23-0.22-0.52-0.38-0.64-0.63c-0.3-0.63-0.55-1.3-0.79-1.96c-0.22-0.6,0.05-0.84,0.64-0.77
				c1.16,0.14,2.32,0.25,3.48,0.44c0.29,0.05,0.55,0.33,0.83,0.5c-0.23,0.26-0.42,0.57-0.7,0.76c-0.55,0.38-1.13,0.71-1.71,1.05
				C29.8,15.45,29.47,15.62,29.02,15.86z"/>
			<path class="st0" d="M15.3,8.04c-0.6,0.02-1.02-0.53-0.74-1.17c0.5-1.12,0.95-2.22,0.83-3.48c-0.01-0.14,0.19-0.4,0.32-0.42
				c0.15-0.02,0.38,0.14,0.47,0.29c0.14,0.22,0.18,0.5,0.28,0.74c0.37,0.9,0.73,1.8,1.11,2.69c0.36,0.83,0.17,1.15-0.7,1.2
				C16.36,7.91,15.83,7.99,15.3,8.04z"/>
			<path class="st0" d="M4.89,12.58c1.4,0.19,2.53,0.33,3.66,0.51c0.53,0.09,0.65,0.4,0.39,0.9c-0.26,0.5-0.5,1.02-0.68,1.56
				c-0.27,0.76-0.69,0.9-1.29,0.35c-0.86-0.79-1.72-1.57-2.55-2.38c-0.14-0.13-0.25-0.54-0.19-0.58C4.48,12.74,4.8,12.63,4.89,12.58
				z"/>
			<path class="st0" d="M134.04,49.45c0-1.13-0.02-2.09,0.01-3.04c0.01-0.27,0.19-0.53,0.3-0.8c0.11,0.27,0.31,0.53,0.32,0.8
				c0.04,1.21,0.03,2.42,0,3.63c-0.01,0.26-0.2,0.51-0.3,0.76c-0.22-0.15-0.5-0.26-0.66-0.46c-0.92-1.14-1.8-2.29-2.7-3.44
				c-0.07,0.03-0.15,0.05-0.22,0.08c0,0.9,0,1.81,0,2.71c0,0.24,0.03,0.48-0.02,0.71c-0.04,0.17-0.2,0.3-0.3,0.45
				c-0.1-0.15-0.28-0.3-0.28-0.45c-0.03-0.86-0.02-1.71-0.02-2.57c0-0.47-0.03-0.95,0.01-1.42c0.03-0.25,0.19-0.49,0.3-0.74
				c0.23,0.12,0.53,0.18,0.68,0.37c0.8,0.95,1.55,1.93,2.33,2.9C133.6,49.08,133.76,49.2,134.04,49.45z"/>
			<path class="st0" d="M53.17,47.79c1.04,0,1.99,0,3.07,0c0-0.57-0.03-1.1,0.02-1.62c0.02-0.2,0.23-0.38,0.35-0.57
				c0.11,0.18,0.3,0.35,0.3,0.53c0.02,1.42,0.02,2.83,0,4.25c0,0.16-0.23,0.31-0.35,0.47c-0.1-0.15-0.29-0.29-0.3-0.45
				c-0.03-0.61-0.01-1.22-0.01-1.89c-1.08,0-2.03,0-3.07,0c0,0.65,0.02,1.23-0.01,1.81c-0.01,0.18-0.19,0.36-0.29,0.53
				c-0.14-0.17-0.39-0.34-0.4-0.52c-0.03-1.42-0.03-2.83,0-4.25c0-0.16,0.23-0.32,0.35-0.49c0.12,0.16,0.32,0.32,0.34,0.49
				C53.2,46.64,53.17,47.19,53.17,47.79z"/>
			<path class="st0" d="M150.45,50.36c0-0.66-0.03-1.16,0.02-1.65c0.02-0.18,0.2-0.35,0.31-0.53c0.12,0.16,0.28,0.31,0.34,0.49
				c0.06,0.19,0.02,0.41,0.02,0.62c0,1.81-0.03,1.84-1.83,1.55c-1.43-0.23-2.36-1.14-2.44-2.4c-0.08-1.29,0.67-2.31,2.08-2.7
				c0.5-0.14,1.05-0.17,1.57-0.2c0.12-0.01,0.25,0.17,0.38,0.26c-0.11,0.11-0.21,0.28-0.34,0.31c-0.43,0.1-0.88,0.11-1.31,0.22
				c-1.03,0.28-1.66,1.03-1.67,1.92c0,0.91,0.61,1.62,1.68,1.9C149.61,50.25,149.96,50.28,150.45,50.36z"/>
			<path class="st0" d="M102.31,49.32c0,0.4,0.03,0.76-0.01,1.1c-0.02,0.15-0.2,0.28-0.3,0.43c-0.13-0.12-0.37-0.24-0.37-0.36
				c-0.03-1.5-0.03-3.01,0-4.51c0-0.14,0.24-0.42,0.33-0.4c0.8,0.13,1.67,0.17,2.35,0.54c0.37,0.2,0.66,1.06,0.55,1.51
				c-0.14,0.54-0.68,1.03-1.17,1.39C103.37,49.26,102.85,49.22,102.31,49.32z M102.36,45.94c0,1.08,0,1.85,0,2.94
				c0.68-0.37,1.28-0.55,1.64-0.94c0.2-0.22,0.17-0.96-0.05-1.19C103.6,46.39,103.01,46.25,102.36,45.94z"/>
			<path class="st0" d="M22.84,7.84c-0.87-0.39-1.52-0.65-2.12-1c-0.1-0.06-0.07-0.64,0.09-0.81c0.66-0.74,1.37-1.44,2.1-2.12
				c0.16-0.15,0.46-0.13,0.7-0.19c0.02,0.22,0.09,0.45,0.07,0.66c-0.07,0.78-0.13,1.57-0.28,2.33C23.32,7.1,23.05,7.44,22.84,7.84z"
				/>
			<path class="st0" d="M87.02,49.32c0,0.42,0.03,0.8-0.02,1.18c-0.02,0.13-0.25,0.24-0.38,0.36c-0.1-0.12-0.3-0.24-0.3-0.36
				c-0.02-1.5-0.02-3.01-0.01-4.51c0-0.13,0.14-0.37,0.18-0.36c0.88,0.15,1.84,0.16,2.59,0.55c0.71,0.37,0.72,1.29,0.32,1.98
				c-0.23,0.39-0.7,0.68-1.12,0.91C87.96,49.23,87.54,49.22,87.02,49.32z M87.06,45.92c0,1.1,0,1.87,0,2.95
				c0.66-0.34,1.26-0.51,1.63-0.9c0.21-0.22,0.19-0.95-0.02-1.19C88.32,46.41,87.74,46.26,87.06,45.92z"/>
			<path class="st0" d="M37,50.43c0.82-0.09,1.36-0.1,1.86-0.24c0.27-0.07,0.64-0.37,0.65-0.59c0.02-0.28-0.22-0.64-0.45-0.85
				c-0.27-0.25-0.74-0.31-0.98-0.58c-0.32-0.37-0.74-0.9-0.68-1.29c0.07-0.45,0.55-0.93,0.97-1.19c0.37-0.22,0.91-0.16,1.38-0.15
				c0.16,0,0.31,0.24,0.63,0.51c-0.7,0.06-1.15,0.04-1.56,0.16c-0.27,0.08-0.63,0.33-0.68,0.57c-0.05,0.22,0.19,0.59,0.41,0.77
				c0.31,0.26,0.79,0.34,1.05,0.64c0.32,0.37,0.71,0.89,0.67,1.31c-0.04,0.42-0.49,0.97-0.89,1.16c-0.53,0.24-1.2,0.2-1.81,0.23
				C37.44,50.9,37.31,50.69,37,50.43z"/>
			<path class="st0" d="M117.58,48.27c0,0.68,0.03,1.35-0.02,2.03c-0.01,0.19-0.23,0.37-0.35,0.56c-0.11-0.17-0.31-0.33-0.31-0.5
				c-0.03-1.41-0.03-2.82,0-4.23c0-0.17,0.2-0.35,0.31-0.52c0.12,0.18,0.34,0.36,0.36,0.55C117.61,46.85,117.58,47.56,117.58,48.27z
				"/>
		</g>
		<g>
			<path class="st0" d="M156.98,9.36c0,1.6-1.29,2.88-2.93,2.88s-2.95-1.27-2.95-2.88s1.31-2.86,2.96-2.86
				C155.69,6.5,156.98,7.75,156.98,9.36z M151.84,9.36c0,1.27,0.96,2.29,2.23,2.29c1.24,0.02,2.18-1.01,2.18-2.27
				c0-1.27-0.94-2.3-2.22-2.3C152.8,7.07,151.84,8.1,151.84,9.36z M153.6,10.84h-0.66V7.98c0.26-0.04,0.63-0.09,1.1-0.09
				c0.54,0,0.78,0.09,0.98,0.23c0.17,0.12,0.3,0.33,0.3,0.61c0,0.35-0.26,0.58-0.59,0.68v0.03c0.28,0.09,0.42,0.31,0.51,0.7
				c0.09,0.44,0.16,0.59,0.21,0.7h-0.7c-0.09-0.11-0.14-0.35-0.23-0.7c-0.05-0.3-0.23-0.44-0.59-0.44h-0.31V10.84z M153.62,9.24
				h0.31c0.37,0,0.66-0.12,0.66-0.42c0-0.26-0.19-0.44-0.61-0.44c-0.17,0-0.3,0.02-0.37,0.04V9.24z"/>
		</g>
	</g>
</g>
</svg>
